<svg width="800" height="512" viewBox="0 0 800 512" fill="none" xmlns="http://www.w3.org/2000/svg">
<g clip-path="url(#clip0_110_348)">
<path d="M279 4.99998C290.202 12.0894 298.417 22.3414 301.572 35.3389C302.554 41.45 302.292 47.7075 302.287 53.8835C302.293 55.4923 302.3 57.1011 302.308 58.71C302.323 62.1617 302.331 65.6134 302.335 69.0651C302.342 74.5238 302.364 79.9823 302.388 85.441C302.441 98.0085 302.475 110.576 302.508 123.144C302.538 134.674 302.573 146.204 302.624 157.733C302.647 163.16 302.661 168.586 302.668 174.012C302.674 177.385 302.688 180.758 302.704 184.131C302.71 185.695 302.712 187.258 302.711 188.822C302.71 190.957 302.721 193.092 302.735 195.226C302.738 196.421 302.741 197.615 302.744 198.846C303.006 202.076 303.355 204.206 305 207C308.817 209.246 312.381 209.25 316.74 209.252C317.737 209.256 317.737 209.256 318.754 209.261C320.975 209.268 323.195 209.262 325.416 209.255C327.011 209.258 328.607 209.262 330.202 209.266C333.636 209.274 337.07 209.277 340.503 209.274C345.943 209.272 351.382 209.286 356.822 209.303C372.29 209.35 387.758 209.374 403.226 209.381C411.77 209.385 420.314 209.403 428.859 209.436C434.255 209.456 439.651 209.459 445.048 209.448C448.422 209.445 451.797 209.459 455.171 209.478C456.723 209.483 458.276 209.482 459.828 209.473C475.28 209.391 487.783 212.27 499.219 223.102C509.702 234.172 512.7 246.104 512.375 260.93C511.714 273.64 505.225 283.259 496.187 291.75C484.675 301.347 472.496 302.298 458.116 302.287C456.508 302.293 454.899 302.3 453.29 302.308C449.838 302.323 446.387 302.331 442.935 302.335C437.476 302.342 432.018 302.364 426.559 302.388C413.991 302.441 401.424 302.475 388.856 302.508C377.326 302.538 365.796 302.573 354.266 302.624C348.84 302.647 343.414 302.661 337.988 302.668C334.615 302.674 331.242 302.688 327.869 302.704C326.305 302.71 324.742 302.712 323.178 302.711C321.043 302.71 318.908 302.721 316.773 302.735C315.579 302.738 314.385 302.741 313.154 302.744C309.924 303.006 307.794 303.355 305 305C302.754 308.817 302.75 312.381 302.748 316.74C302.745 317.405 302.742 318.069 302.739 318.754C302.732 320.975 302.738 323.195 302.745 325.416C302.742 327.011 302.738 328.607 302.734 330.202C302.725 333.636 302.723 337.07 302.726 340.503C302.728 345.943 302.714 351.383 302.697 356.822C302.65 372.29 302.626 387.758 302.619 403.226C302.615 411.77 302.597 420.314 302.564 428.859C302.544 434.255 302.541 439.651 302.552 445.048C302.555 448.422 302.541 451.797 302.522 455.171C302.517 456.723 302.518 458.276 302.527 459.828C302.609 475.28 299.73 487.783 288.898 499.219C277.828 509.702 265.896 512.7 251.07 512.375C238.36 511.714 228.741 505.225 220.25 496.187C210.653 484.675 209.702 472.496 209.713 458.116C209.707 456.508 209.7 454.899 209.692 453.29C209.677 449.838 209.668 446.387 209.664 442.935C209.658 437.476 209.636 432.018 209.612 426.559C209.559 413.991 209.525 401.424 209.492 388.856C209.461 377.326 209.427 365.796 209.376 354.266C209.352 348.84 209.339 343.414 209.332 337.988C209.326 334.615 209.312 331.242 209.296 327.869C209.29 326.305 209.288 324.742 209.289 323.178C209.29 321.043 209.279 318.908 209.265 316.773C209.261 314.982 209.261 314.982 209.256 313.154C208.994 309.924 208.645 307.794 207 305C203.183 302.754 199.619 302.75 195.26 302.748C194.595 302.745 193.93 302.742 193.246 302.739C191.025 302.732 188.805 302.738 186.584 302.745C184.989 302.742 183.393 302.738 181.798 302.734C178.364 302.726 174.93 302.723 171.497 302.726C166.057 302.728 160.617 302.714 155.178 302.697C139.71 302.65 124.242 302.626 108.774 302.619C100.23 302.615 91.6855 302.597 83.1411 302.564C77.7447 302.544 72.3487 302.541 66.9522 302.552C63.5776 302.555 60.2032 302.541 56.8287 302.522C55.2764 302.517 53.7241 302.518 52.1719 302.527C36.7195 302.609 24.2168 299.73 12.7812 288.898C2.29763 277.828 -0.700029 265.896 -0.375067 251.07C0.286201 238.36 6.77448 228.741 15.8124 220.25C27.3244 210.653 39.504 209.702 53.8835 209.713C55.4923 209.707 57.1011 209.7 58.7099 209.692C62.1616 209.677 65.6133 209.669 69.0651 209.664C74.5237 209.658 79.9823 209.636 85.4409 209.612C98.0085 209.559 110.576 209.525 123.144 209.492C134.674 209.461 146.204 209.427 157.733 209.376C163.16 209.353 168.586 209.339 174.012 209.332C177.385 209.326 180.758 209.312 184.131 209.296C185.695 209.29 187.258 209.288 188.822 209.289C190.957 209.29 193.092 209.279 195.226 209.265C196.421 209.262 197.615 209.259 198.846 209.256C202.076 208.994 204.206 208.645 207 207C209.246 203.183 209.25 199.619 209.251 195.26C209.254 194.595 209.257 193.93 209.26 193.246C209.268 191.025 209.262 188.805 209.255 186.584C209.258 184.989 209.262 183.393 209.266 181.798C209.274 178.364 209.277 174.93 209.274 171.497C209.271 166.057 209.286 160.617 209.303 155.178C209.35 139.71 209.374 124.242 209.381 108.774C209.385 100.23 209.403 91.6856 209.436 83.1412C209.456 77.7448 209.459 72.3487 209.448 66.9523C209.445 63.5777 209.459 60.2033 209.478 56.8287C209.483 55.2765 209.482 53.7242 209.473 52.1719C209.391 36.7196 212.27 24.2169 223.102 12.7812C238.022 -1.34807 260.768 -5.21219 279 4.99998Z" fill="#7A8594"/>
</g>
<defs>
<clipPath id="clip0_110_348">
<rect width="512" height="512" fill="white"/>
</clipPath>
</defs>
</svg>
