<svg width="800" height="512" viewBox="0 0 800 512" fill="none" xmlns="http://www.w3.org/2000/svg">
<path d="M196.75 83.7617C197.558 83.7519 198.365 83.7421 199.197 83.732C225.246 83.4813 249.121 85.8289 274 94C274.704 94.2291 275.408 94.4583 276.133 94.6943C312.082 106.648 344.603 130.387 368 160C369.189 161.446 369.189 161.446 370.402 162.922C398.618 198.046 412.509 242.963 412.313 287.625C412.31 288.508 412.308 289.391 412.306 290.301C412.147 330.857 400.499 370.626 377 404C376.565 404.623 376.13 405.246 375.682 405.888C342.921 452.348 294.304 480.579 238.822 490.554C232.299 491.584 225.978 492.172 219.383 492.238C218.577 492.248 217.771 492.258 216.94 492.268C177.673 492.648 127.82 487.624 96.8869 460.121C95.021 458.722 95.021 458.722 92.7072 459.504C89.2038 461.44 85.956 463.631 82.6876 465.938C81.2541 466.936 79.8205 467.935 78.3869 468.934C77.2932 469.699 77.2932 469.699 76.1774 470.48C72.7981 472.839 69.3988 475.169 66.0001 477.5C64.6667 478.417 63.3334 479.333 62.0001 480.25C59.3335 482.083 56.6668 483.917 54.0001 485.75C53.0088 486.432 53.0088 486.432 51.9975 487.127C50.6732 488.037 49.3488 488.947 48.0243 489.857C44.5508 492.244 41.0802 494.635 37.6134 497.031C36.5335 497.777 36.5335 497.777 35.4318 498.537C34.0585 499.485 32.6861 500.434 31.3146 501.385C29.5506 502.601 27.7784 503.804 26.0001 505C25.1262 505.588 24.2522 506.176 23.3517 506.781C19.3265 508.867 15.4082 508.775 11.0001 508C7.8813 506.309 5.60997 504.22 4.00016 501C2.9236 492.525 5.46525 485.006 8.05875 477.043C8.48687 475.692 8.91369 474.341 9.33929 472.99C10.4625 469.434 11.6027 465.884 12.7468 462.336C13.8741 458.83 14.9865 455.32 16.0998 451.811C17.857 446.277 19.616 440.744 21.3786 435.212C21.5941 434.536 21.8096 433.859 22.0317 433.161C23.3562 429.006 24.6925 424.855 26.0356 420.706C26.9014 418.023 27.7576 415.337 28.6116 412.65C29.2079 410.785 29.8165 408.924 30.4253 407.062C30.7801 405.941 31.1349 404.82 31.5004 403.665C31.8154 402.688 32.1305 401.71 32.4551 400.703C33.6272 394.89 31.0006 391.058 28.0626 386.25C17.7622 368.567 11.2515 348.945 7.00016 329C6.82372 328.209 6.64728 327.419 6.46549 326.604C-4.10907 277.169 7.36171 221.085 34.3751 178.75C35.879 176.473 37.429 174.231 39.0001 172C39.6527 171.066 39.6527 171.066 40.3185 170.112C72.9051 123.898 121.106 95.9226 176.156 85.4455C183.019 84.3704 189.806 83.8319 196.75 83.7617ZM78.4572 163.526C56.1889 185.923 40.3942 215.356 33.0001 246C32.804 246.781 32.6079 247.562 32.4059 248.367C29.2054 261.622 28.6073 274.743 28.5626 288.312C28.5565 289.105 28.5503 289.898 28.5439 290.715C28.4696 305.558 30.3194 320.024 34.1876 334.375C34.3949 335.147 34.6021 335.919 34.8156 336.714C39.2148 352.396 45.6344 369.656 55.3815 382.873C59.4711 388.541 59.7461 393.13 59.0001 400C57.8286 405.028 56.2291 409.895 54.59 414.785C54.1376 416.177 53.6868 417.569 53.2376 418.961C52.0622 422.593 50.8691 426.219 49.6706 429.843C47.7452 435.673 45.8431 441.511 43.9489 447.351C43.2852 449.387 42.6113 451.418 41.9362 453.45C41.5357 454.676 41.1352 455.902 40.7226 457.164C40.365 458.246 40.0075 459.327 39.6392 460.442C38.7133 462.969 38.7133 462.968 40.0001 465C40.539 464.597 41.0778 464.193 41.633 463.777C54.698 454.132 68.2512 445.148 81.7501 436.125C82.3634 435.715 82.9767 435.304 83.6085 434.881C88.4991 431.627 90.9901 430.428 97.0001 431C101.305 432.751 105.107 435.399 108.949 437.984C148.903 464.652 197.378 473.348 244.332 464.219C291.909 454.323 332.754 425.163 359.367 384.804C372.172 364.873 380.55 343.26 385 320C385.185 319.053 385.371 318.106 385.562 317.13C387.236 307.628 387.399 298.244 387.375 288.625C387.374 287.788 387.374 286.951 387.373 286.089C387.333 272.388 386.391 259.328 383 246C382.791 245.154 382.582 244.308 382.367 243.437C370.346 196.119 338.624 156.62 297.021 131.82C279.189 121.489 260.15 115.048 240 111C238.844 110.765 237.687 110.531 236.496 110.289C177.857 99.9542 119.941 122.489 78.4572 163.526Z" fill="#7A8594"/>
<path d="M370 14C370.704 14.2291 371.408 14.4582 372.133 14.6943C408.082 26.6484 440.603 50.3873 464 80C465.189 81.4463 465.189 81.4463 466.402 82.9219C494.618 118.046 508.509 162.963 508.313 207.625C508.31 208.508 508.308 209.392 508.306 210.302C508.255 223.406 507.884 236.167 505 249C504.702 250.363 504.702 250.363 504.398 251.754C500.062 271.058 493.584 293.366 481.807 309.65C480.095 312.108 478.941 313.967 479.116 317.029C480.79 324.742 483.15 332.208 485.578 339.711C486.032 341.128 486.486 342.546 486.939 343.964C488.129 347.683 489.325 351.399 490.522 355.116C491.72 358.833 492.913 362.551 494.105 366.27C494.338 366.994 494.57 367.718 494.81 368.465C496.616 374.097 498.414 379.732 500.206 385.369C501.148 388.332 502.095 391.294 503.053 394.252C503.939 396.99 504.808 399.732 505.672 402.477C505.917 403.218 506.162 403.959 506.414 404.722C508.062 410.057 508.781 415.433 508 421C506.31 424.118 504.217 426.391 501 428C493.766 429.246 489.236 427.548 483.34 423.43C482.822 423.052 482.303 422.674 481.769 422.284C479.74 420.811 477.687 419.377 475.629 417.945C472.237 415.583 468.853 413.209 465.473 410.828C459.895 406.912 454.264 403.078 448.625 399.25C445.91 397.399 443.196 395.547 440.482 393.694C438.902 392.616 437.32 391.539 435.736 390.466C433.775 389.134 431.824 387.788 429.875 386.438C428.821 385.714 427.766 384.991 426.68 384.246C422.651 380.869 420.249 377.742 419.5 372.5C420.237 367.341 422.294 364.383 426.313 361.125C429.924 359.613 432.096 359.479 436 360C442.887 363.112 449.012 367.676 455.125 372.062C456.834 373.285 458.545 374.506 460.258 375.723C461.374 376.523 461.374 376.523 462.512 377.34C465.592 379.395 468.77 381.19 472 383C471.624 381.853 471.624 381.853 471.241 380.682C468.87 373.436 466.515 366.185 464.177 358.927C462.975 355.198 461.767 351.47 460.545 347.746C459.364 344.146 458.198 340.54 457.044 336.931C456.603 335.562 456.156 334.195 455.704 332.83C449.7 314.68 449.7 314.68 453.018 306.485C454.242 304.14 455.609 301.96 457.063 299.75C458.084 298.089 459.101 296.425 460.113 294.758C460.61 293.949 461.108 293.139 461.62 292.306C472.181 274.664 477.758 254.152 481 234C481.175 232.925 481.35 231.85 481.531 230.742C482.031 226.754 482.196 222.825 482.238 218.812C482.248 218.041 482.258 217.27 482.268 216.475C482.441 199.296 482.263 182.756 478 166C477.791 165.154 477.582 164.308 477.367 163.437C465.444 116.503 434.294 77.4232 393.021 52.8203C375.189 42.4893 356.15 36.0482 336 32C334.266 31.6481 334.266 31.6481 332.496 31.289C289.908 23.783 241.243 33.3691 205.625 58.2969C201.828 60.7602 198.487 61.3457 194 61C190.146 59.073 186.908 56.9216 185 53C184.283 48.368 184.372 45.1791 186.605 40.9844C189.278 37.6539 192.083 35.6814 195.75 33.625C196.74 33.0537 196.74 33.0537 197.749 32.4709C199.821 31.2905 201.906 30.1394 204 29C204.641 28.6515 205.281 28.3029 205.941 27.9438C224.053 18.2337 242.932 11.3872 263 7.00002C263.798 6.82068 264.596 6.64133 265.418 6.45656C299.505 -0.828259 337.22 3.23391 370 14Z" fill="#7A8594"/>
<g clip-path="url(#clip0_110_253)">
<path d="M221.984 184.953C226.36 187.722 229.569 191.727 230.802 196.804C231.185 199.191 231.083 201.636 231.081 204.048C231.083 204.677 231.086 205.305 231.089 205.934C231.095 207.282 231.098 208.63 231.1 209.979C231.102 212.111 231.111 214.243 231.12 216.375C231.141 221.285 231.154 226.194 231.167 231.103C231.179 235.607 231.193 240.111 231.212 244.615C231.222 246.734 231.227 248.854 231.229 250.973C231.232 252.291 231.237 253.609 231.244 254.926C231.246 255.537 231.247 256.148 231.246 256.759C231.246 257.593 231.25 258.426 231.256 259.26C231.257 259.727 231.258 260.193 231.259 260.674C231.362 261.936 231.498 262.768 232.14 263.859C233.632 264.737 235.024 264.738 236.726 264.739C237.116 264.741 237.116 264.741 237.513 264.742C238.381 264.745 239.248 264.743 240.115 264.74C240.739 264.741 241.362 264.743 241.985 264.745C243.326 264.748 244.668 264.749 246.009 264.748C248.134 264.747 250.259 264.752 252.384 264.759C258.426 264.777 264.468 264.787 270.51 264.789C273.848 264.791 277.185 264.798 280.523 264.811C282.631 264.819 284.739 264.82 286.847 264.815C288.165 264.814 289.483 264.82 290.801 264.827C291.407 264.829 292.014 264.829 292.62 264.825C298.656 264.793 303.54 265.918 308.007 270.149C312.102 274.473 313.273 279.134 313.146 284.926C312.888 289.891 310.354 293.648 306.823 296.965C302.326 300.714 297.569 301.085 291.952 301.081C291.323 301.083 290.695 301.086 290.066 301.089C288.718 301.095 287.37 301.098 286.021 301.1C283.889 301.102 281.757 301.111 279.624 301.12C274.715 301.141 269.806 301.154 264.897 301.167C260.393 301.179 255.889 301.193 251.385 301.213C249.266 301.222 247.146 301.227 245.026 301.23C243.709 301.232 242.391 301.237 241.074 301.244C240.463 301.246 239.852 301.247 239.241 301.247C238.407 301.246 237.573 301.25 236.74 301.256C236.273 301.257 235.806 301.258 235.326 301.259C234.064 301.362 233.232 301.498 232.14 302.141C231.263 303.632 231.261 305.024 231.261 306.726C231.26 306.986 231.259 307.246 231.257 307.513C231.254 308.381 231.257 309.248 231.259 310.116C231.258 310.739 231.257 311.362 231.255 311.985C231.252 313.327 231.251 314.668 231.252 316.009C231.253 318.134 231.248 320.259 231.241 322.384C231.222 328.426 231.213 334.468 231.21 340.51C231.209 343.848 231.202 347.185 231.189 350.523C231.181 352.631 231.18 354.739 231.184 356.847C231.185 358.165 231.18 359.483 231.173 360.801C231.171 361.408 231.171 362.014 231.175 362.62C231.206 368.656 230.082 373.54 225.851 378.007C221.526 382.102 216.865 383.273 211.074 383.146C206.109 382.888 202.352 380.354 199.035 376.823C195.286 372.326 194.915 367.569 194.919 361.952C194.917 361.323 194.914 360.695 194.911 360.066C194.905 358.718 194.902 357.37 194.9 356.021C194.897 353.889 194.889 351.757 194.88 349.625C194.859 344.715 194.846 339.806 194.833 334.897C194.821 330.393 194.807 325.889 194.787 321.385C194.778 319.266 194.773 317.146 194.77 315.027C194.768 313.709 194.762 312.391 194.756 311.074C194.754 310.463 194.753 309.852 194.753 309.241C194.754 308.407 194.749 307.574 194.744 306.74C194.742 306.04 194.742 306.04 194.741 305.326C194.638 304.064 194.502 303.232 193.859 302.141C192.368 301.263 190.976 301.262 189.273 301.261C189.014 301.26 188.754 301.259 188.486 301.258C187.619 301.255 186.752 301.257 185.884 301.26C185.261 301.259 184.638 301.257 184.015 301.255C182.673 301.252 181.332 301.251 179.991 301.252C177.866 301.253 175.741 301.248 173.616 301.241C167.574 301.222 161.532 301.213 155.49 301.211C152.152 301.209 148.815 301.202 145.477 301.189C143.369 301.181 141.261 301.18 139.153 301.184C137.835 301.186 136.517 301.18 135.199 301.173C134.592 301.171 133.986 301.171 133.38 301.175C127.343 301.207 122.46 300.082 117.993 295.851C113.897 291.527 112.726 286.866 112.853 281.074C113.112 276.109 115.646 272.352 119.177 269.035C123.673 265.286 128.431 264.915 134.048 264.919C134.677 264.917 135.305 264.914 135.933 264.911C137.282 264.905 138.63 264.902 139.978 264.9C142.111 264.898 144.243 264.889 146.375 264.88C151.284 264.859 156.194 264.846 161.103 264.833C165.607 264.821 170.111 264.807 174.615 264.787C176.734 264.778 178.854 264.773 180.973 264.77C182.291 264.768 183.608 264.763 184.926 264.756C185.537 264.754 186.148 264.753 186.758 264.753C187.592 264.754 188.426 264.75 189.26 264.744C189.727 264.743 190.193 264.742 190.674 264.741C191.936 264.638 192.768 264.502 193.859 263.859C194.737 262.368 194.738 260.976 194.739 259.273C194.74 259.014 194.741 258.754 194.742 258.487C194.745 257.619 194.743 256.752 194.74 255.884C194.741 255.261 194.743 254.638 194.745 254.015C194.748 252.673 194.749 251.332 194.748 249.991C194.747 247.866 194.752 245.741 194.759 243.616C194.777 237.574 194.787 231.532 194.789 225.49C194.791 222.152 194.798 218.815 194.811 215.477C194.819 213.369 194.82 211.261 194.815 209.153C194.814 207.835 194.82 206.517 194.827 205.199C194.829 204.592 194.829 203.986 194.825 203.38C194.793 197.344 195.918 192.46 200.149 187.993C205.977 182.473 214.862 180.964 221.984 184.953Z" fill="#4C525B"/>
</g>
<defs>
<clipPath id="clip0_110_253">
<rect width="200" height="200" fill="white" transform="translate(113 183)"/>
</clipPath>
</defs>
</svg>
