<svg width="800" height="512" viewBox="0 0 800 512" fill="none" xmlns="http://www.w3.org/2000/svg">
<g clip-path="url(#clip0_105_82)">
<path d="M111 2.88486e-05C115.48 2.59725 118.174 5.17159 121.06 9.44345C121.829 10.5455 122.603 11.645 123.379 12.7422C123.788 13.3202 124.197 13.8982 124.618 14.4936C140.056 35.8498 159.156 57.9602 186.288 62.4996C212.758 66.1889 240.048 64.5577 266.643 63.2373C279.706 62.5995 292.773 62.3347 305.848 62.0664C319.206 61.7833 332.558 61.4694 345.909 60.9184C347.942 60.838 349.976 60.7576 352.009 60.6773C355.752 60.5286 359.492 60.3581 363.233 60.1743C379.063 59.4838 392.229 62.5942 404.77 72.8711C414.147 81.8219 421.432 94.0973 422.12 107.31C422.118 108.098 422.116 108.886 422.114 109.699C422.113 110.599 422.113 111.5 422.113 112.427C422.108 113.386 422.103 114.345 422.098 115.332C422.096 116.82 422.096 116.82 422.093 118.337C422.088 121.496 422.075 124.654 422.062 127.813C422.057 129.958 422.053 132.103 422.049 134.248C422.038 139.499 422.021 144.749 422 150C423.852 149.976 423.852 149.976 425.741 149.952C430.38 149.898 435.018 149.863 439.657 149.835C441.654 149.82 443.651 149.8 445.648 149.774C464.545 149.532 481.942 150.742 496.523 164.426C506.298 174.847 512.322 187.629 512.267 201.961C512.272 202.841 512.277 203.72 512.281 204.627C512.294 207.562 512.292 210.497 512.291 213.432C512.297 215.542 512.303 217.652 512.311 219.761C512.329 225.485 512.333 231.208 512.335 236.931C512.336 240.51 512.34 244.089 512.346 247.668C512.364 260.164 512.372 272.659 512.371 285.154C512.369 296.786 512.391 308.417 512.422 320.049C512.448 330.047 512.459 340.046 512.458 350.045C512.457 356.011 512.463 361.977 512.484 367.943C512.503 373.558 512.504 379.173 512.489 384.788C512.487 386.842 512.492 388.897 512.504 390.951C512.599 408.252 510.082 423.564 497.75 436.813C488.604 445.183 475.99 452.148 463.323 452.114C461.942 452.113 461.942 452.113 460.533 452.113C459.548 452.108 458.562 452.103 457.547 452.098C456.532 452.096 455.516 452.095 454.47 452.093C451.23 452.088 447.99 452.075 444.75 452.063C442.552 452.058 440.354 452.053 438.156 452.049C432.771 452.038 427.385 452.021 422 452C422.009 452.613 422.018 453.226 422.027 453.858C422.116 460.249 422.176 466.641 422.22 473.033C422.24 475.417 422.267 477.801 422.302 480.185C422.35 483.616 422.373 487.046 422.391 490.477C422.411 491.539 422.432 492.602 422.453 493.697C422.455 499.815 422.091 503.348 418 508C413.493 512.177 409.664 512.464 403.781 512.531C399.098 511.637 395.903 509.093 392.899 505.456C392.252 504.499 391.606 503.542 390.94 502.557C390.171 501.455 389.397 500.355 388.621 499.258C388.212 498.68 387.803 498.102 387.382 497.506C371.944 476.15 352.844 454.04 325.712 449.5C299.242 445.811 271.952 447.442 245.357 448.763C232.294 449.401 219.227 449.665 206.152 449.934C192.794 450.217 179.442 450.531 166.091 451.082C164.058 451.162 162.024 451.242 159.991 451.323C156.248 451.472 152.508 451.642 148.767 451.826C132.937 452.516 119.771 449.406 107.23 439.129C97.8527 430.178 90.5677 417.903 89.8798 404.69C89.882 403.902 89.8842 403.114 89.8865 402.302C89.8866 400.951 89.8866 400.951 89.8867 399.573C89.8945 398.135 89.8945 398.135 89.9024 396.668C89.9038 395.676 89.9052 394.684 89.9066 393.663C89.9122 390.504 89.9248 387.346 89.9375 384.188C89.9425 382.042 89.9471 379.897 89.9512 377.752C89.9622 372.501 89.9789 367.251 90 362C88.7655 362.016 87.531 362.031 86.259 362.048C81.6203 362.102 76.9815 362.137 72.3425 362.165C70.3457 362.18 68.349 362.2 66.3523 362.226C47.4554 362.468 30.0578 361.258 15.4766 347.574C5.70172 337.153 -0.322099 324.371 -0.267421 310.039C-0.271952 309.159 -0.276486 308.28 -0.281154 307.373C-0.293773 304.438 -0.292177 301.503 -0.290523 298.568C-0.29651 296.458 -0.303316 294.348 -0.310878 292.239C-0.328531 286.515 -0.33323 280.792 -0.334506 275.069C-0.335929 271.49 -0.340208 267.911 -0.345508 264.332C-0.364007 251.837 -0.372175 239.341 -0.370601 226.846C-0.3694 215.214 -0.390494 203.583 -0.422092 191.951C-0.448282 181.953 -0.458968 171.954 -0.457691 161.956C-0.457182 155.989 -0.462822 150.023 -0.484043 144.057C-0.50347 138.442 -0.503526 132.827 -0.489017 127.212C-0.486933 125.158 -0.4916 123.104 -0.503734 121.049C-0.60539 102.639 2.52988 88.1718 15.4844 74.3594C24.1762 66.2075 36.5409 59.8532 48.6768 59.8865C49.5974 59.8866 50.5181 59.8867 51.4666 59.8867C52.4522 59.8919 53.4377 59.8971 54.4531 59.9024C55.4685 59.9038 56.4838 59.9052 57.53 59.9067C60.77 59.9123 64.01 59.9248 67.25 59.9375C69.4479 59.9425 71.6458 59.9471 73.8438 59.9512C79.2292 59.9622 84.6146 59.979 90 60C89.9911 59.387 89.9822 58.7739 89.9731 58.1422C89.8845 51.7507 89.8242 45.3593 89.7803 38.9673C89.7602 36.5831 89.7329 34.199 89.6982 31.815C89.6496 28.3843 89.627 24.9544 89.6094 21.5235C89.5887 20.4607 89.5681 19.398 89.5468 18.3031C89.545 12.1846 89.9086 8.65169 94 4.00003C98.964 -0.600725 104.498 -1.242 111 2.88486e-05ZM121 53C120.985 53.7562 120.971 54.5124 120.956 55.2915C120.881 58.7365 120.785 62.1806 120.688 65.625C120.665 66.8148 120.642 68.0046 120.619 69.2305C120.393 76.5958 120.159 82.0032 114.563 87.3125C110.464 90.0115 107.047 90.1238 102.197 90.126C100.444 90.1317 100.444 90.1317 98.6554 90.1375C97.395 90.1386 96.1346 90.1396 94.8359 90.1407C92.8455 90.1543 90.855 90.168 88.8645 90.1834C83.9661 90.2212 79.068 90.2527 74.1694 90.2505C71.421 90.2499 68.6733 90.2625 65.925 90.2895C63.3429 90.3147 60.7605 90.3214 58.1783 90.3067C49.657 90.4245 42.5383 91.7613 36.1346 97.7423C28.0056 107.416 29.7127 120.93 29.7412 132.801C29.7385 134.699 29.7349 136.597 29.7306 138.496C29.7215 143.628 29.725 148.76 29.7313 153.892C29.7364 159.274 29.7317 164.656 29.7286 170.039C29.7249 179.074 29.7297 188.11 29.7393 197.146C29.7501 207.58 29.7466 218.013 29.7356 228.447C29.7265 237.421 29.7253 246.394 29.7305 255.368C29.7336 260.72 29.734 266.073 29.7274 271.426C29.7216 276.458 29.7257 281.491 29.7372 286.523C29.7398 288.366 29.7391 290.208 29.7347 292.051C29.7292 294.574 29.7361 297.097 29.746 299.62C29.7416 300.342 29.7371 301.064 29.7325 301.807C29.7991 310.581 31.256 318.187 37.6055 324.629C44.0528 330.535 50.0644 331.297 58.5547 331.195C59.4562 331.193 60.3578 331.19 61.2867 331.187C64.1496 331.176 67.0122 331.151 69.875 331.125C71.8229 331.115 73.7708 331.106 75.7188 331.098C80.4793 331.076 85.2396 331.041 90 331C90.0024 330.315 90.0048 329.631 90.0072 328.925C90.0665 312.222 90.1422 295.519 90.2357 278.816C90.2806 270.739 90.32 262.661 90.3464 254.584C90.3695 247.538 90.403 240.494 90.4487 233.449C90.4725 229.722 90.4913 225.996 90.4976 222.27C90.5049 218.098 90.5354 213.927 90.5676 209.755C90.5662 208.536 90.5648 207.317 90.5633 206.06C90.7381 189.992 95.3976 177.026 106.52 165.289C118.265 154.45 131.793 150.858 147.364 150.842C148.407 150.837 149.449 150.832 150.523 150.827C154.015 150.811 157.506 150.803 160.998 150.795C163.501 150.785 166.004 150.775 168.508 150.765C173.896 150.743 179.285 150.725 184.674 150.709C192.466 150.686 200.257 150.658 208.048 150.629C220.69 150.581 233.332 150.538 245.973 150.497C258.252 150.458 270.53 150.417 282.809 150.372C283.945 150.368 283.945 150.368 285.103 150.364C288.902 150.35 292.7 150.337 296.498 150.323C327.999 150.209 359.499 150.102 391 150C391.075 144.308 391.129 138.615 391.165 132.922C391.18 130.988 391.2 129.054 391.226 127.121C391.263 124.33 391.28 121.541 391.293 118.75C391.308 117.894 391.324 117.039 391.34 116.158C391.342 109.666 390.29 104.203 386.422 98.793C385.87 98.2632 385.318 97.7334 384.75 97.1875C384.209 96.6448 383.667 96.1021 383.109 95.543C377.332 91.3173 372.14 90.5613 365.195 90.6215C364.332 90.617 363.47 90.6124 362.581 90.6078C359.703 90.5962 356.825 90.6058 353.947 90.6153C351.879 90.6112 349.81 90.6057 347.742 90.599C343.294 90.5873 338.846 90.5848 334.398 90.5893C327.363 90.5962 320.329 90.5803 313.295 90.5609C298.363 90.5231 283.432 90.5103 268.5 90.5C252.38 90.489 236.26 90.4736 220.14 90.4293C213.148 90.411 206.156 90.4071 199.164 90.4143C194.814 90.4158 190.464 90.405 186.114 90.3909C184.098 90.3869 182.082 90.388 180.066 90.3946C177.312 90.403 174.559 90.393 171.805 90.3786C170.611 90.3889 170.611 90.3889 169.393 90.3995C162.494 90.329 157.059 88.5979 152.1 83.5384C151.423 82.8579 150.746 82.1774 150.049 81.4763C148.992 80.384 148.992 80.384 147.914 79.2696C147.172 78.5191 146.429 77.7687 145.664 76.9956C143.308 74.6105 140.966 72.2122 138.625 69.8125C136.26 67.4048 133.892 65 131.521 62.5974C130.05 61.1041 128.582 59.6073 127.118 58.1069C126.46 57.4359 125.802 56.7649 125.124 56.0735C124.543 55.4786 123.962 54.8836 123.364 54.2706C122.189 52.8864 122.189 52.8864 121 53ZM125.254 189.926C121.63 195.92 120.559 200.646 120.619 207.539C120.614 208.373 120.61 209.208 120.605 210.067C120.593 212.848 120.602 215.629 120.612 218.41C120.608 220.41 120.602 222.409 120.596 224.409C120.582 229.83 120.588 235.251 120.597 240.673C120.605 246.35 120.598 252.027 120.593 257.703C120.587 267.236 120.595 276.769 120.609 286.302C120.625 297.319 120.62 308.336 120.603 319.353C120.59 328.817 120.588 338.28 120.596 347.743C120.6 353.394 120.601 359.044 120.591 364.694C120.582 370.006 120.588 375.318 120.606 380.63C120.61 382.579 120.609 384.527 120.602 386.475C120.594 389.137 120.604 391.799 120.619 394.461C120.612 395.229 120.606 395.998 120.599 396.79C120.673 403.654 122.675 408.991 127.25 414.25C127.791 414.895 128.333 415.539 128.891 416.203C134.365 420.866 139.911 421.438 146.805 421.379C147.668 421.383 148.53 421.388 149.419 421.392C152.297 421.404 155.175 421.394 158.053 421.385C160.121 421.389 162.19 421.394 164.258 421.401C168.706 421.413 173.154 421.415 177.602 421.411C184.637 421.404 191.671 421.42 198.705 421.439C213.637 421.477 228.568 421.49 243.5 421.5C259.62 421.511 275.74 421.526 291.86 421.571C298.852 421.589 305.844 421.593 312.836 421.586C317.186 421.584 321.536 421.595 325.886 421.609C327.902 421.613 329.918 421.612 331.934 421.605C334.688 421.597 337.441 421.607 340.195 421.621C341.389 421.611 341.389 421.611 342.607 421.601C349.506 421.671 354.941 423.402 359.9 428.462C360.915 429.482 360.915 429.482 361.951 430.524C362.656 431.252 363.36 431.98 364.086 432.73C364.828 433.481 365.571 434.231 366.336 435.005C368.692 437.39 371.034 439.788 373.375 442.188C375.74 444.595 378.108 447 380.479 449.403C381.95 450.896 383.418 452.393 384.882 453.893C385.54 454.564 386.198 455.235 386.876 455.927C387.457 456.522 388.038 457.116 388.636 457.729C389.811 459.114 389.811 459.114 391 459C391.022 457.866 391.022 457.866 391.044 456.709C391.119 453.264 391.215 449.819 391.312 446.375C391.335 445.185 391.358 443.995 391.381 442.77C391.607 435.404 391.841 429.997 397.438 424.688C401.536 421.989 404.953 421.876 409.803 421.874C411.556 421.868 411.556 421.868 413.345 421.863C415.235 421.861 415.235 421.861 417.164 421.859C419.155 421.846 421.145 421.832 423.135 421.817C428.034 421.779 432.932 421.747 437.831 421.75C440.579 421.75 443.327 421.738 446.075 421.711C448.657 421.685 451.24 421.679 453.822 421.693C461.497 421.587 467.681 420.604 474 416C480.867 408.326 482.316 399.643 482.254 389.613C482.257 388.82 482.26 388.026 482.263 387.209C482.271 384.577 482.265 381.945 482.259 379.313C482.262 377.414 482.265 375.516 482.269 373.618C482.279 368.482 482.275 363.346 482.269 358.21C482.264 352.825 482.268 347.44 482.271 342.055C482.275 333.013 482.27 323.971 482.261 314.93C482.25 304.489 482.253 294.048 482.264 283.606C482.273 274.629 482.275 265.651 482.27 256.673C482.266 251.317 482.266 245.961 482.273 240.605C482.278 235.568 482.274 230.532 482.263 225.495C482.26 223.651 482.261 221.807 482.265 219.963C482.271 217.437 482.264 214.912 482.254 212.387C482.258 211.664 482.263 210.942 482.267 210.197C482.201 201.422 480.746 193.815 474.395 187.371C469.21 182.622 464.357 180.753 457.245 180.743C456.114 180.736 454.983 180.73 453.818 180.723C452.586 180.726 451.353 180.729 450.083 180.733C448.766 180.728 447.449 180.724 446.092 180.719C442.442 180.707 438.793 180.707 435.143 180.709C431.204 180.71 427.265 180.699 423.327 180.689C415.612 180.673 407.897 180.667 400.182 180.666C393.91 180.665 387.638 180.661 381.365 180.655C363.577 180.637 345.79 180.628 328.002 180.629C327.043 180.629 326.084 180.629 325.096 180.629C324.136 180.63 323.176 180.63 322.187 180.63C306.633 180.63 291.078 180.611 275.524 180.583C259.547 180.554 243.571 180.541 227.595 180.542C218.627 180.543 209.66 180.538 200.692 180.516C193.056 180.498 185.421 180.493 177.785 180.507C173.891 180.514 169.997 180.514 166.104 180.496C162.534 180.481 158.965 180.483 155.396 180.501C153.503 180.505 151.61 180.49 149.717 180.474C139.984 180.553 131.623 182.073 125.254 189.926Z" fill="#7A8594"/>
<path d="M382 241C386.005 243.002 388.659 245.18 391 249C392.63 253.89 392.58 258.224 391 263.063C386.344 269.901 378.951 274.645 372.313 279.438C365.31 284.543 358.379 289.729 351.5 295C344.114 300.654 336.668 306.215 329.164 311.711C323.223 316.073 317.353 320.521 311.5 325C304.004 330.736 296.457 336.395 288.839 341.968C285.032 344.755 281.247 347.562 277.504 350.434C276.786 350.982 276.069 351.53 275.329 352.095C273.994 353.118 272.662 354.147 271.337 355.183C265.354 359.755 259.8 362.851 252 362C244.923 359.364 242.012 354.39 238.716 347.868C238.415 347.275 238.113 346.683 237.803 346.072C236.817 344.128 235.84 342.18 234.863 340.23C234.177 338.867 233.49 337.503 232.803 336.139C231.367 333.286 229.936 330.43 228.509 327.573C226.685 323.925 224.845 320.286 223.001 316.649C221.578 313.837 220.166 311.019 218.757 308.2C218.083 306.856 217.406 305.515 216.725 304.175C208.678 288.332 208.678 288.332 211.125 280.313C213.379 276.331 215.843 273.078 220 271C224.782 270.6 229.37 270.362 233.875 272.125C239.457 277.05 242.622 282.669 245.863 289.266C246.519 290.578 246.519 290.578 247.187 291.916C248.103 293.753 249.014 295.592 249.922 297.433C251.317 300.259 252.725 303.079 254.135 305.898C255.024 307.687 255.913 309.476 256.801 311.266C257.223 312.111 257.644 312.957 258.079 313.829C258.463 314.61 258.848 315.391 259.243 316.196C259.584 316.884 259.924 317.572 260.274 318.281C261 320 261 320 261 322C270.141 315.609 279.052 308.951 287.905 302.168C293.725 297.715 299.587 293.329 305.5 289C312.225 284.075 318.88 279.066 325.5 274C337.877 264.533 350.397 255.266 363.063 246.188C363.641 245.773 364.219 245.358 364.814 244.93C370.656 240.767 374.842 240.262 382 241Z" fill="#7A8594"/>
</g>
<defs>
<clipPath id="clip0_105_82">
<rect width="512" height="512" fill="white"/>
</clipPath>
</defs>
</svg>
