<svg width="800" height="512" viewBox="0 0 800 512" fill="none" xmlns="http://www.w3.org/2000/svg">
<g clip-path="url(#clip0_113_7)">
<path d="M80.8938 183.748C82.1575 183.743 83.4212 183.738 84.7233 183.732C86.1387 183.737 87.5542 183.741 88.9697 183.746C90.4632 183.744 91.9567 183.741 93.4502 183.737C97.5692 183.728 101.688 183.732 105.807 183.739C110.243 183.743 114.68 183.736 119.116 183.731C127.813 183.722 136.509 183.724 145.206 183.729C152.271 183.734 159.336 183.735 166.402 183.732C167.907 183.732 167.907 183.732 169.443 183.731C171.482 183.731 173.521 183.73 175.56 183.729C194.7 183.724 213.84 183.73 232.979 183.741C249.418 183.75 265.857 183.748 282.296 183.739C301.365 183.729 320.434 183.724 339.503 183.73C341.535 183.731 343.566 183.732 345.598 183.732C347.098 183.733 347.098 183.733 348.627 183.733C355.688 183.735 362.748 183.732 369.809 183.727C378.407 183.722 387.006 183.723 395.605 183.734C399.996 183.739 404.387 183.741 408.778 183.735C412.793 183.729 416.807 183.732 420.821 183.743C422.279 183.745 423.736 183.744 425.194 183.739C427.164 183.733 429.135 183.74 431.106 183.748C432.204 183.749 433.301 183.749 434.432 183.749C437 184 437 184 439 186C439.184 188.404 439.236 190.678 439.193 193.081C439.182 194.204 439.182 194.204 439.17 195.349C439.018 206.141 438.442 216.922 437.914 227.701C437.797 230.149 437.681 232.597 437.564 235.045C437.282 240.963 436.996 246.881 436.709 252.799C436.373 259.713 436.042 266.627 435.711 273.541C435.12 285.89 434.525 298.239 433.928 310.587C433.35 322.529 432.775 334.471 432.202 346.413C432.167 347.148 432.132 347.884 432.095 348.642C431.953 351.6 431.812 354.559 431.67 357.517C431.088 369.646 430.505 381.775 429.921 393.904C429.789 396.653 429.656 399.403 429.524 402.152C429.147 409.995 428.769 417.838 428.39 425.681C428.275 428.048 428.161 430.414 428.047 432.781C427.707 439.854 427.358 446.927 427 454C426.957 454.86 426.915 455.719 426.871 456.605C426.753 458.961 426.629 461.317 426.502 463.673C426.435 464.959 426.367 466.245 426.298 467.57C425.171 480.54 419.605 492.197 410 501C399.858 508.787 389.498 512.621 376.742 512.515C375.664 512.522 374.585 512.528 373.474 512.536C369.89 512.554 366.307 512.544 362.723 512.533C360.141 512.54 357.56 512.549 354.978 512.56C348.712 512.581 342.445 512.581 336.178 512.573C331.081 512.567 325.984 512.568 320.886 512.574C320.159 512.575 319.431 512.576 318.682 512.577C317.204 512.579 315.726 512.581 314.247 512.582C300.407 512.599 286.568 512.59 272.728 512.573C260.089 512.559 247.45 512.573 234.811 512.602C221.807 512.632 208.804 512.643 195.8 512.633C194.327 512.632 192.854 512.631 191.381 512.63C190.656 512.63 189.932 512.629 189.185 512.629C184.1 512.626 179.015 512.636 173.93 512.651C167.073 512.67 160.216 512.663 153.359 512.639C150.849 512.634 148.339 512.637 145.828 512.65C127.702 512.734 114.157 511.545 99.9998 499C90.3458 489.362 86.2202 477.337 85.5542 463.919C85.518 463.209 85.4817 462.499 85.4444 461.768C85.3225 459.36 85.2061 456.951 85.0896 454.543C85.0011 452.768 84.9123 450.994 84.8232 449.219C84.5755 444.262 84.333 439.305 84.0915 434.348C83.937 431.183 83.7813 428.018 83.6251 424.854C82.8534 409.214 82.0933 393.574 81.3358 377.933C81.0598 372.236 80.783 366.538 80.5059 360.841C79.5032 340.223 78.5044 319.606 77.5134 298.987C77.4215 297.076 77.3297 295.165 77.2378 293.254C77.1924 292.309 77.147 291.365 77.1002 290.391C76.7797 283.725 76.4572 277.058 76.134 270.392C75.7345 262.15 75.3381 253.908 74.9454 245.666C74.7419 241.399 74.5373 237.132 74.3291 232.865C74.1357 228.9 73.9462 224.936 73.7596 220.971C73.6916 219.541 73.6223 218.11 73.5514 216.679C73.1719 209.001 72.9144 201.326 72.8338 193.64C72.8195 192.906 72.8052 192.173 72.7905 191.418C72.7825 189.61 72.8826 187.803 72.9998 186C75.7079 183.292 77.1031 183.749 80.8938 183.748ZM165 213C160.046 219.293 159.851 224.659 159.859 232.437C159.856 233.284 159.853 234.132 159.85 235.005C159.842 237.843 159.84 240.681 159.839 243.519C159.834 245.554 159.829 247.589 159.824 249.625C159.81 255.154 159.804 260.683 159.8 266.212C159.797 269.667 159.793 273.122 159.788 276.578C159.774 287.392 159.765 298.205 159.761 309.019C159.756 321.497 159.739 333.974 159.71 346.452C159.688 356.101 159.678 365.749 159.677 375.398C159.676 381.159 159.67 386.92 159.652 392.68C159.636 398.101 159.633 403.521 159.642 408.942C159.643 410.928 159.639 412.914 159.629 414.9C159.616 417.619 159.622 420.336 159.632 423.055C159.624 423.835 159.616 424.614 159.608 425.418C159.661 431.328 160.38 438.053 164.452 442.633C169.211 446.672 172.393 447.356 178.461 447.277C182.224 446.866 184.218 445.517 187 443C191.954 436.707 192.149 431.341 192.14 423.563C192.143 422.715 192.146 421.868 192.149 420.995C192.158 418.157 192.159 415.319 192.161 412.481C192.166 410.446 192.171 408.411 192.176 406.375C192.189 400.846 192.195 395.317 192.2 389.788C192.203 386.333 192.207 382.877 192.211 379.422C192.225 368.608 192.235 357.795 192.239 346.981C192.243 334.503 192.261 322.026 192.29 309.548C192.311 299.899 192.321 290.251 192.323 280.602C192.324 274.841 192.33 269.08 192.348 263.319C192.364 257.899 192.366 252.479 192.357 247.058C192.357 245.072 192.361 243.086 192.371 241.1C192.384 238.381 192.378 235.663 192.367 232.945C192.375 232.165 192.383 231.386 192.392 230.582C192.339 224.671 191.62 217.947 187.548 213.367C182.789 209.328 179.607 208.644 173.539 208.723C169.775 209.134 167.782 210.483 165 213ZM245 213C240.046 219.293 239.851 224.659 239.859 232.437C239.856 233.284 239.853 234.132 239.85 235.005C239.842 237.843 239.84 240.681 239.839 243.519C239.834 245.554 239.829 247.589 239.824 249.625C239.81 255.154 239.804 260.683 239.8 266.212C239.797 269.667 239.793 273.122 239.788 276.578C239.774 287.392 239.765 298.205 239.761 309.019C239.756 321.497 239.739 333.974 239.71 346.452C239.688 356.101 239.678 365.749 239.677 375.398C239.676 381.159 239.67 386.92 239.652 392.68C239.636 398.101 239.633 403.521 239.642 408.942C239.643 410.928 239.639 412.914 239.629 414.9C239.616 417.619 239.622 420.336 239.632 423.055C239.624 423.835 239.616 424.614 239.608 425.418C239.661 431.328 240.38 438.053 244.452 442.633C249.211 446.672 252.393 447.356 258.461 447.277C262.224 446.866 264.218 445.517 267 443C271.954 436.707 272.149 431.341 272.14 423.563C272.143 422.715 272.146 421.868 272.149 420.995C272.158 418.157 272.159 415.319 272.161 412.481C272.166 410.446 272.171 408.411 272.176 406.375C272.189 400.846 272.196 395.317 272.2 389.788C272.203 386.333 272.207 382.877 272.211 379.422C272.225 368.608 272.235 357.795 272.239 346.981C272.243 334.503 272.261 322.026 272.29 309.548C272.311 299.899 272.321 290.251 272.323 280.602C272.324 274.841 272.33 269.08 272.348 263.319C272.364 257.899 272.366 252.479 272.357 247.058C272.357 245.072 272.361 243.086 272.371 241.1C272.384 238.381 272.378 235.663 272.367 232.945C272.375 232.165 272.383 231.386 272.392 230.582C272.339 224.671 271.62 217.947 267.548 213.367C262.789 209.328 259.607 208.644 253.539 208.723C249.775 209.134 247.782 210.483 245 213ZM325 213C320.046 219.293 319.851 224.659 319.859 232.437C319.856 233.284 319.853 234.132 319.85 235.005C319.842 237.843 319.84 240.681 319.839 243.519C319.834 245.554 319.829 247.589 319.824 249.625C319.81 255.154 319.804 260.683 319.8 266.212C319.797 269.667 319.793 273.122 319.788 276.578C319.774 287.392 319.765 298.205 319.761 309.019C319.756 321.497 319.739 333.974 319.71 346.452C319.688 356.101 319.678 365.749 319.677 375.398C319.676 381.159 319.67 386.92 319.652 392.68C319.636 398.101 319.633 403.521 319.642 408.942C319.643 410.928 319.639 412.914 319.629 414.9C319.616 417.619 319.622 420.336 319.632 423.055C319.624 423.835 319.616 424.614 319.608 425.418C319.661 431.328 320.38 438.053 324.452 442.633C329.211 446.672 332.393 447.356 338.461 447.277C342.224 446.866 344.218 445.517 347 443C351.954 436.707 352.149 431.341 352.14 423.563C352.143 422.715 352.146 421.868 352.149 420.995C352.158 418.157 352.159 415.319 352.161 412.481C352.165 410.446 352.171 408.411 352.176 406.375C352.189 400.846 352.195 395.317 352.2 389.788C352.203 386.333 352.207 382.877 352.211 379.422C352.225 368.608 352.235 357.795 352.239 346.981C352.243 334.503 352.261 322.026 352.29 309.548C352.311 299.899 352.321 290.251 352.323 280.602C352.324 274.841 352.33 269.08 352.348 263.319C352.364 257.899 352.366 252.479 352.357 247.058C352.357 245.072 352.361 243.086 352.371 241.1C352.384 238.381 352.378 235.663 352.367 232.945C352.375 232.165 352.383 231.386 352.392 230.582C352.339 224.671 351.62 217.947 347.548 213.367C342.789 209.328 339.607 208.644 333.539 208.723C329.775 209.134 327.782 210.483 325 213Z" fill="#7A8594"/>
<path d="M232.93 -0.433636C234.77 -0.438206 236.61 -0.443514 238.451 -0.449521C242.295 -0.45842 246.139 -0.456065 249.984 -0.446087C254.882 -0.434608 259.778 -0.45481 264.676 -0.484005C268.473 -0.502458 272.27 -0.502056 276.068 -0.496367C277.872 -0.496215 279.676 -0.502169 281.481 -0.514659C298.5 -0.615885 310.925 2.41319 323.75 14.3125C334.024 25.1676 336.503 37.0988 336.188 51.625C336.174 52.8199 336.161 54.0149 336.147 55.2461C336.112 58.1645 336.062 61.082 336 64C337.191 63.9911 338.382 63.9822 339.609 63.973C350.863 63.8917 362.117 63.8319 373.372 63.7927C379.157 63.7719 384.942 63.7437 390.727 63.6982C396.317 63.6545 401.905 63.6308 407.495 63.6204C409.621 63.6131 411.747 63.5987 413.873 63.577C429.164 63.4273 441.372 63.8992 453 75C461.567 83.9743 464.635 93.9075 464.531 106.144C464.535 107.158 464.539 108.171 464.543 109.215C464.546 111.337 464.538 113.459 464.522 115.581C464.5 118.822 464.522 122.061 464.547 125.303C464.544 127.375 464.539 129.447 464.531 131.519C464.539 132.482 464.548 133.445 464.556 134.436C464.477 140.106 463.953 143.62 460 148C455.568 151.478 452.707 152.5 447.094 152.503C446.42 152.509 445.747 152.515 445.053 152.521C442.796 152.536 440.541 152.522 438.285 152.508C436.651 152.512 435.017 152.519 433.382 152.527C428.892 152.544 424.403 152.535 419.913 152.523C415.07 152.514 410.227 152.528 405.385 152.539C395.899 152.557 386.413 152.553 376.926 152.541C369.218 152.532 361.509 152.531 353.8 152.535C352.156 152.536 352.156 152.536 350.478 152.537C348.25 152.538 346.023 152.54 343.795 152.541C322.902 152.552 302.008 152.539 281.114 152.518C263.18 152.5 245.246 152.503 227.313 152.521C206.494 152.543 185.676 152.551 164.858 152.539C162.638 152.538 160.419 152.536 158.2 152.535C157.108 152.535 156.016 152.534 154.891 152.533C147.19 152.53 139.489 152.536 131.789 152.545C122.406 152.556 113.023 152.553 103.641 152.532C98.8522 152.521 94.0639 152.517 89.2753 152.531C84.8932 152.543 80.5116 152.536 76.1296 152.515C74.5429 152.51 72.9562 152.513 71.3695 152.522C69.2145 152.534 67.061 152.522 64.9061 152.503C63.7087 152.503 62.5113 152.502 61.2776 152.501C56.1493 151.717 53.0733 149.189 49.6583 145.405C47.3689 140.704 47.4254 136.684 47.4689 131.519C47.465 130.511 47.4612 129.502 47.4573 128.463C47.4546 126.332 47.4619 124.202 47.4786 122.071C47.4999 118.84 47.4789 115.612 47.4532 112.381C47.4559 110.302 47.461 108.223 47.4689 106.144C47.4608 105.192 47.4527 104.24 47.4443 103.258C47.5962 92.17 51.3409 83.0232 59.0001 75C71.4963 63.0707 85.0008 63.4431 101.293 63.6093C103.452 63.6168 105.611 63.6225 107.77 63.6265C113.421 63.6417 119.071 63.6809 124.721 63.7253C130.499 63.7664 136.278 63.7845 142.057 63.8046C153.371 63.8474 164.686 63.9156 176 64C175.969 62.9128 175.969 62.9128 175.937 61.8037C175.852 58.4526 175.801 55.1017 175.75 51.75C175.717 50.6104 175.683 49.4709 175.649 48.2968C175.483 33.6894 180.464 22.8654 190.313 12.25C202.839 0.394413 216.609 -0.469272 232.93 -0.433636ZM212.063 37.75C206.57 46.4043 208 53.4408 208 64C239.68 64 271.36 64 304 64C304.93 49.8836 304.93 49.8836 299.711 37.4218C292.453 30.6683 282.857 31.6885 273.633 31.6992C272.23 31.6953 270.826 31.6909 269.423 31.6862C266.489 31.6788 263.556 31.679 260.623 31.6843C256.885 31.6901 253.148 31.6732 249.41 31.6499C246.514 31.6351 243.618 31.6343 240.721 31.6375C239.344 31.6369 237.967 31.6318 236.59 31.6216C223.197 31.2836 223.197 31.2836 212.063 37.75Z" fill="#7A8594"/>
</g>
<defs>
<clipPath id="clip0_113_7">
<rect width="512" height="512" fill="white"/>
</clipPath>
</defs>
</svg>
