<svg width="800" height="512" viewBox="0 0 800 512" fill="none" xmlns="http://www.w3.org/2000/svg">
<path d="M196.75 83.7617C197.558 83.7519 198.365 83.7421 199.197 83.732C225.246 83.4813 249.121 85.8289 274 94C274.704 94.2291 275.408 94.4583 276.133 94.6943C312.082 106.648 344.603 130.387 368 160C369.189 161.446 369.189 161.446 370.402 162.922C398.618 198.046 412.509 242.963 412.313 287.625C412.31 288.508 412.308 289.391 412.306 290.301C412.147 330.857 400.499 370.626 377 404C376.565 404.623 376.13 405.246 375.682 405.888C342.921 452.348 294.304 480.579 238.822 490.554C232.299 491.584 225.978 492.172 219.383 492.238C218.577 492.248 217.771 492.258 216.94 492.268C177.673 492.648 127.82 487.624 96.8869 460.121C95.021 458.722 95.021 458.722 92.7072 459.504C89.2038 461.44 85.956 463.631 82.6876 465.938C81.2541 466.936 79.8205 467.935 78.3869 468.934C77.2932 469.699 77.2932 469.699 76.1774 470.48C72.7981 472.839 69.3988 475.169 66.0001 477.5C64.6667 478.417 63.3334 479.333 62.0001 480.25C59.3335 482.083 56.6668 483.917 54.0001 485.75C53.0088 486.432 53.0088 486.432 51.9975 487.127C50.6732 488.037 49.3488 488.947 48.0243 489.857C44.5508 492.244 41.0802 494.635 37.6134 497.031C36.5335 497.777 36.5335 497.777 35.4318 498.537C34.0585 499.485 32.6861 500.434 31.3146 501.385C29.5506 502.601 27.7784 503.804 26.0001 505C25.1262 505.588 24.2522 506.176 23.3517 506.781C19.3265 508.867 15.4082 508.775 11.0001 508C7.8813 506.309 5.60997 504.22 4.00016 501C2.9236 492.525 5.46525 485.006 8.05875 477.043C8.48687 475.692 8.91369 474.341 9.33929 472.99C10.4625 469.434 11.6027 465.884 12.7468 462.336C13.8741 458.83 14.9865 455.32 16.0998 451.811C17.857 446.277 19.616 440.744 21.3786 435.212C21.5941 434.536 21.8096 433.859 22.0317 433.161C23.3562 429.006 24.6925 424.855 26.0356 420.706C26.9014 418.023 27.7576 415.337 28.6116 412.65C29.2079 410.785 29.8165 408.924 30.4253 407.062C30.7801 405.941 31.1349 404.82 31.5004 403.665C31.8154 402.688 32.1305 401.71 32.4551 400.703C33.6272 394.89 31.0006 391.058 28.0626 386.25C17.7622 368.567 11.2515 348.945 7.00016 329C6.82372 328.209 6.64728 327.419 6.46549 326.604C-4.10907 277.169 7.36171 221.085 34.3751 178.75C35.879 176.473 37.429 174.231 39.0001 172C39.6527 171.066 39.6527 171.066 40.3185 170.112C72.9051 123.898 121.106 95.9226 176.156 85.4455C183.019 84.3704 189.806 83.8319 196.75 83.7617ZM78.4572 163.526C56.1889 185.923 40.3942 215.356 33.0001 246C32.804 246.781 32.6079 247.562 32.4059 248.367C29.2054 261.622 28.6073 274.743 28.5626 288.312C28.5565 289.105 28.5503 289.898 28.5439 290.715C28.4696 305.558 30.3194 320.024 34.1876 334.375C34.3949 335.147 34.6021 335.919 34.8156 336.714C39.2148 352.396 45.6344 369.656 55.3815 382.873C59.4711 388.541 59.7461 393.13 59.0001 400C57.8286 405.028 56.2291 409.895 54.59 414.785C54.1376 416.177 53.6868 417.569 53.2376 418.961C52.0622 422.593 50.8691 426.219 49.6706 429.843C47.7452 435.673 45.8431 441.511 43.9489 447.351C43.2852 449.387 42.6113 451.418 41.9362 453.45C41.5357 454.676 41.1352 455.902 40.7226 457.164C40.365 458.246 40.0075 459.327 39.6392 460.442C38.7133 462.969 38.7133 462.968 40.0001 465C40.539 464.597 41.0778 464.193 41.633 463.777C54.698 454.132 68.2512 445.148 81.7501 436.125C82.3634 435.715 82.9767 435.304 83.6085 434.881C88.4991 431.627 90.9901 430.428 97.0001 431C101.305 432.751 105.107 435.399 108.949 437.984C148.903 464.652 197.378 473.348 244.332 464.219C291.909 454.323 332.754 425.163 359.367 384.804C372.172 364.873 380.55 343.26 385 320C385.185 319.053 385.371 318.106 385.562 317.13C387.236 307.628 387.399 298.244 387.375 288.625C387.374 287.788 387.374 286.951 387.373 286.089C387.333 272.388 386.391 259.328 383 246C382.791 245.154 382.582 244.308 382.367 243.437C370.346 196.119 338.624 156.62 297.021 131.82C279.189 121.489 260.15 115.048 240 111C238.844 110.765 237.687 110.531 236.496 110.289C177.857 99.9542 119.941 122.489 78.4572 163.526Z" fill="#7A8594"/>
<path d="M370 14C370.704 14.2291 371.408 14.4582 372.133 14.6943C408.082 26.6484 440.603 50.3873 464 80C465.189 81.4463 465.189 81.4463 466.402 82.9219C494.618 118.046 508.509 162.963 508.313 207.625C508.31 208.508 508.308 209.392 508.306 210.302C508.255 223.406 507.884 236.167 505 249C504.702 250.363 504.702 250.363 504.398 251.754C500.062 271.058 493.584 293.366 481.807 309.65C480.095 312.108 478.941 313.967 479.116 317.029C480.79 324.742 483.15 332.208 485.578 339.711C486.032 341.128 486.486 342.546 486.939 343.964C488.129 347.683 489.325 351.399 490.522 355.116C491.72 358.833 492.913 362.551 494.105 366.27C494.338 366.994 494.57 367.718 494.81 368.465C496.616 374.097 498.414 379.732 500.206 385.369C501.148 388.332 502.095 391.294 503.053 394.252C503.939 396.99 504.808 399.732 505.672 402.477C505.917 403.218 506.162 403.959 506.414 404.722C508.062 410.057 508.781 415.433 508 421C506.31 424.118 504.217 426.391 501 428C493.766 429.246 489.236 427.548 483.34 423.43C482.822 423.052 482.303 422.674 481.769 422.284C479.74 420.811 477.687 419.377 475.629 417.945C472.237 415.583 468.853 413.209 465.473 410.828C459.895 406.912 454.264 403.078 448.625 399.25C445.91 397.399 443.196 395.547 440.482 393.694C438.902 392.616 437.32 391.539 435.736 390.466C433.775 389.134 431.824 387.788 429.875 386.438C428.821 385.714 427.766 384.991 426.68 384.246C422.651 380.869 420.249 377.742 419.5 372.5C420.237 367.341 422.294 364.383 426.313 361.125C429.924 359.613 432.096 359.479 436 360C442.887 363.112 449.012 367.676 455.125 372.062C456.834 373.285 458.545 374.506 460.258 375.723C461.374 376.523 461.374 376.523 462.512 377.34C465.592 379.395 468.77 381.19 472 383C471.624 381.853 471.624 381.853 471.241 380.682C468.87 373.436 466.515 366.185 464.177 358.927C462.975 355.198 461.767 351.47 460.545 347.746C459.364 344.146 458.198 340.54 457.044 336.931C456.603 335.562 456.156 334.195 455.704 332.83C449.7 314.68 449.7 314.68 453.018 306.485C454.242 304.14 455.609 301.96 457.063 299.75C458.084 298.089 459.101 296.425 460.113 294.758C460.61 293.949 461.108 293.139 461.62 292.306C472.181 274.664 477.758 254.152 481 234C481.175 232.925 481.35 231.85 481.531 230.742C482.031 226.754 482.196 222.825 482.238 218.812C482.248 218.041 482.258 217.27 482.268 216.475C482.441 199.296 482.263 182.756 478 166C477.791 165.154 477.582 164.308 477.367 163.437C465.444 116.503 434.294 77.4232 393.021 52.8203C375.189 42.4893 356.15 36.0482 336 32C334.266 31.6481 334.266 31.6481 332.496 31.289C289.908 23.783 241.243 33.3691 205.625 58.2969C201.828 60.7602 198.487 61.3457 194 61C190.146 59.073 186.908 56.9216 185 53C184.283 48.368 184.372 45.1791 186.605 40.9844C189.278 37.6539 192.083 35.6814 195.75 33.625C196.74 33.0537 196.74 33.0537 197.749 32.4709C199.821 31.2905 201.906 30.1394 204 29C204.641 28.6515 205.281 28.3029 205.941 27.9438C224.053 18.2337 242.932 11.3872 263 7.00002C263.798 6.82068 264.596 6.64133 265.418 6.45656C299.505 -0.828259 337.22 3.23391 370 14Z" fill="#7A8594"/>
<path d="M218.078 227.922C218.512 228.293 218.946 228.665 219.38 229.037C219.743 229.347 219.743 229.347 220.113 229.664C225.313 234.139 230.083 239.094 234.924 243.947C236.092 245.118 237.262 246.287 238.431 247.457C240.636 249.664 242.841 251.872 245.046 254.08C247.559 256.598 250.073 259.114 252.587 261.63C257.752 266.799 262.916 271.969 268.078 277.141C267.521 278.407 266.845 279.253 265.87 280.23C265.572 280.531 265.274 280.831 264.967 281.141C264.473 281.633 264.473 281.633 263.969 282.135C263.621 282.485 263.272 282.836 262.913 283.197C261.945 284.17 260.974 285.14 260.004 286.11C258.957 287.156 257.913 288.205 256.868 289.253C254.82 291.307 252.77 293.36 250.72 295.411C249.052 297.079 247.385 298.748 245.718 300.417C240.991 305.151 236.262 309.884 231.53 314.614C231.275 314.869 231.02 315.124 230.757 315.387C230.502 315.643 230.246 315.898 229.983 316.161C225.848 320.296 221.717 324.435 217.587 328.576C213.345 332.829 209.1 337.079 204.852 341.327C202.468 343.711 200.085 346.096 197.705 348.484C195.678 350.518 193.648 352.55 191.614 354.578C190.577 355.612 189.542 356.648 188.51 357.686C187.389 358.815 186.261 359.938 185.133 361.06C184.812 361.385 184.491 361.71 184.159 362.046C179.523 366.628 174.766 368.696 168.372 369.488C167.982 369.538 167.591 369.587 167.189 369.638C165.923 369.798 164.657 369.954 163.39 370.109C162.758 370.187 162.758 370.187 162.113 370.266C159.495 370.587 156.875 370.897 154.254 371.199C153.359 371.303 152.464 371.409 151.57 371.516C134.335 373.582 134.335 373.582 128.422 369.003C125.508 366.457 123.693 363.019 123.156 359.172C122.953 355.535 123.463 351.919 123.87 348.312C123.945 347.638 124.02 346.964 124.095 346.29C124.253 344.881 124.412 343.473 124.572 342.065C124.776 340.275 124.973 338.483 125.168 336.692C125.321 335.3 125.478 333.909 125.637 332.518C125.711 331.859 125.784 331.199 125.855 330.539C126.719 322.577 128.791 316.941 134.604 311.208C135.141 310.668 135.141 310.668 135.689 310.118C136.673 309.131 137.661 308.149 138.65 307.168C139.72 306.105 140.785 305.038 141.851 303.971C143.695 302.126 145.541 300.284 147.39 298.445C150.063 295.785 152.731 293.121 155.398 290.455C159.726 286.13 164.058 281.809 168.392 277.49C172.6 273.296 176.807 269.101 181.011 264.903C181.4 264.514 181.4 264.514 181.797 264.118C183.099 262.818 184.401 261.518 185.703 260.219C196.489 249.448 207.282 238.683 218.078 227.922Z" fill="#4C525B"/>
<path d="M272.766 196.672C275.948 199.289 278.836 202.276 281.756 205.179C281.991 205.412 282.226 205.645 282.468 205.885C283.708 207.117 284.946 208.35 286.184 209.584C287.453 210.849 288.726 212.108 290 213.367C290.99 214.346 291.975 215.329 292.96 216.312C293.428 216.778 293.897 217.243 294.367 217.706C297.548 220.84 300.327 223.929 301.794 228.239C301.973 228.751 301.973 228.751 302.156 229.272C303.66 234.296 302.996 239.534 300.646 244.182C298.262 248.204 294.662 251.393 291.368 254.67C290.952 255.085 290.537 255.5 290.122 255.915C289.042 256.993 287.961 258.071 286.879 259.147C285.771 260.252 284.663 261.358 283.556 262.463C281.393 264.622 279.228 266.78 277.062 268.937C275.561 268.319 274.613 267.365 273.473 266.223C273.175 265.926 273.175 265.926 272.87 265.622C272.203 264.957 271.54 264.289 270.876 263.621C270.399 263.144 269.921 262.666 269.444 262.189C268.148 260.893 266.854 259.595 265.561 258.296C264.209 256.939 262.854 255.585 261.5 254.23C258.937 251.664 256.375 249.095 253.814 246.527C250.899 243.602 247.981 240.68 245.063 237.758C239.06 231.748 233.06 225.734 227.062 219.719C227.754 218.239 228.615 217.281 229.771 216.116C229.967 215.917 230.162 215.719 230.364 215.514C231.011 214.86 231.661 214.208 232.312 213.557C232.765 213.101 233.219 212.645 233.673 212.188C234.625 211.231 235.579 210.276 236.533 209.322C237.749 208.106 238.96 206.885 240.168 205.663C241.105 204.718 242.045 203.776 242.986 202.836C243.433 202.387 243.879 201.938 244.324 201.487C247.412 198.361 250.484 195.649 254.724 194.206C255.065 194.087 255.405 193.967 255.757 193.844C261.605 192.093 267.743 193.322 272.766 196.672Z" fill="#4C525B"/>
</svg>
