<svg width="800" height="512" viewBox="0 0 800 512" fill="none" xmlns="http://www.w3.org/2000/svg">
<g clip-path="url(#clip0_110_321)">
<path d="M111 2.88486e-05C115.479 2.59725 118.174 5.17159 121.06 9.44345C121.829 10.5455 122.603 11.645 123.379 12.7422C123.788 13.3202 124.197 13.8982 124.618 14.4936C140.056 35.8498 159.155 57.9602 186.288 62.4996C212.757 66.1889 240.048 64.5577 266.643 63.2373C279.705 62.5995 292.773 62.3347 305.847 62.0664C319.206 61.7833 332.558 61.4694 345.909 60.9184C347.942 60.838 349.976 60.7576 352.009 60.6773C355.752 60.5286 359.492 60.3581 363.233 60.1743C379.063 59.4838 392.228 62.5942 404.769 72.8711C414.147 81.8219 421.432 94.0973 422.12 107.31C422.118 108.098 422.116 108.886 422.113 109.699C422.113 110.599 422.113 111.5 422.113 112.427C422.108 113.386 422.103 114.345 422.097 115.332C422.095 116.82 422.095 116.82 422.093 118.337C422.088 121.496 422.075 124.654 422.062 127.813C422.057 129.958 422.053 132.103 422.049 134.248C422.038 139.499 422.021 144.749 422 150C423.852 149.976 423.852 149.976 425.741 149.952C430.379 149.898 435.018 149.863 439.657 149.835C441.654 149.82 443.651 149.8 445.647 149.774C464.544 149.532 481.942 150.742 496.523 164.426C506.298 174.847 512.322 187.629 512.267 201.961C512.272 202.841 512.276 203.72 512.281 204.627C512.294 207.562 512.292 210.497 512.29 213.432C512.296 215.542 512.303 217.652 512.311 219.761C512.328 225.485 512.333 231.208 512.334 236.931C512.336 240.51 512.34 244.089 512.345 247.668C512.364 260.164 512.372 272.659 512.37 285.154C512.369 296.786 512.39 308.417 512.422 320.049C512.448 330.047 512.459 340.046 512.457 350.045C512.457 356.011 512.463 361.977 512.484 367.943C512.503 373.558 512.503 379.173 512.489 384.788C512.487 386.842 512.491 388.897 512.503 390.951C512.599 408.252 510.081 423.564 497.75 436.813C488.603 445.183 475.989 452.148 463.323 452.114C461.942 452.113 461.942 452.113 460.533 452.113C459.548 452.108 458.562 452.103 457.547 452.098C456.531 452.096 455.516 452.095 454.47 452.093C451.23 452.088 447.99 452.075 444.75 452.063C442.552 452.058 440.354 452.053 438.156 452.049C432.771 452.038 427.385 452.021 422 452C422.009 452.613 422.018 453.226 422.027 453.858C422.115 460.249 422.176 466.641 422.219 473.033C422.24 475.417 422.267 477.801 422.302 480.185C422.35 483.616 422.373 487.046 422.39 490.477C422.411 491.539 422.432 492.602 422.453 493.697C422.455 499.815 422.091 503.348 418 508C413.493 512.177 409.663 512.464 403.781 512.531C399.098 511.637 395.903 509.093 392.898 505.456C392.252 504.499 391.606 503.542 390.94 502.557C390.17 501.455 389.397 500.355 388.62 499.258C388.212 498.68 387.803 498.102 387.381 497.506C371.943 476.15 352.844 454.04 325.711 449.5C299.242 445.811 271.952 447.442 245.357 448.763C232.294 449.401 219.227 449.665 206.152 449.934C192.794 450.217 179.441 450.531 166.091 451.082C164.057 451.162 162.024 451.242 159.99 451.323C156.248 451.472 152.508 451.642 148.767 451.826C132.937 452.516 119.771 449.406 107.23 439.129C97.8525 430.178 90.5674 417.903 89.8795 404.69C89.8817 403.902 89.884 403.114 89.8862 402.302C89.8864 400.951 89.8864 400.951 89.8865 399.573C89.8942 398.135 89.8942 398.135 89.9021 396.668C89.9035 395.676 89.9049 394.684 89.9064 393.663C89.912 390.504 89.9245 387.346 89.9373 384.188C89.9423 382.042 89.9468 379.897 89.9509 377.752C89.9619 372.501 89.9787 367.251 89.9998 362C88.7652 362.016 87.5307 362.031 86.2588 362.048C81.62 362.102 76.9813 362.137 72.3423 362.165C70.3455 362.18 68.3487 362.2 66.3521 362.226C47.4552 362.468 30.0576 361.258 15.4763 347.574C5.70147 337.153 -0.322343 324.371 -0.267665 310.039C-0.272196 309.159 -0.27673 308.28 -0.281398 307.373C-0.294017 304.438 -0.292421 301.503 -0.290767 298.568C-0.296754 296.458 -0.30356 294.348 -0.311122 292.239C-0.328775 286.515 -0.333474 280.792 -0.334751 275.069C-0.336173 271.49 -0.340453 267.911 -0.345752 264.332C-0.364251 251.837 -0.372419 239.341 -0.370845 226.846C-0.369644 215.214 -0.390738 203.583 -0.422336 191.951C-0.448526 181.953 -0.459212 171.954 -0.457935 161.956C-0.457426 155.989 -0.463066 150.023 -0.484287 144.057C-0.503714 138.442 -0.50377 132.827 -0.489261 127.212C-0.487177 125.158 -0.491844 123.104 -0.503978 121.049C-0.605634 102.639 2.52964 88.1718 15.4841 74.3594C24.1759 66.2075 36.5407 59.8532 48.6765 59.8865C49.5972 59.8866 50.5178 59.8867 51.4664 59.8867C52.4519 59.8919 53.4375 59.8971 54.4529 59.9024C55.4682 59.9038 56.4836 59.9052 57.5297 59.9067C60.7698 59.9123 64.0097 59.9248 67.2498 59.9375C69.4477 59.9425 71.6456 59.9471 73.8435 59.9512C79.229 59.9622 84.6144 59.979 89.9998 60C89.9909 59.387 89.982 58.7739 89.9728 58.1422C89.8842 51.7507 89.824 45.3593 89.78 38.9673C89.7599 36.5831 89.7327 34.199 89.698 31.815C89.6494 28.3843 89.6268 24.9544 89.6091 21.5235C89.5885 20.4607 89.5678 19.398 89.5466 18.3031C89.5447 12.1846 89.9084 8.65169 93.9998 4.00003C98.9637 -0.600725 104.497 -1.242 111 2.88486e-05ZM121 53C120.985 53.7562 120.971 54.5124 120.956 55.2915C120.881 58.7365 120.784 62.1806 120.687 65.625C120.665 66.8148 120.642 68.0046 120.619 69.2305C120.393 76.5958 120.159 82.0032 114.562 87.3125C110.464 90.0115 107.047 90.1238 102.197 90.126C100.444 90.1317 100.444 90.1317 98.6551 90.1375C97.3947 90.1386 96.1343 90.1396 94.8357 90.1407C92.8452 90.1543 90.8547 90.168 88.8643 90.1834C83.9659 90.2212 79.0678 90.2527 74.1692 90.2505C71.4208 90.2499 68.673 90.2625 65.9247 90.2895C63.3426 90.3147 60.7603 90.3214 58.1781 90.3067C49.6567 90.4245 42.538 91.7613 36.1344 97.7423C28.0054 107.416 29.7124 120.93 29.741 132.801C29.7383 134.699 29.7347 136.597 29.7304 138.496C29.7213 143.628 29.7248 148.76 29.7311 153.892C29.7362 159.274 29.7315 164.656 29.7283 170.039C29.7247 179.074 29.7295 188.11 29.739 197.146C29.7499 207.58 29.7464 218.013 29.7354 228.447C29.7263 237.421 29.725 246.394 29.7302 255.368C29.7334 260.72 29.7338 266.073 29.7272 271.426C29.7214 276.458 29.7254 281.491 29.737 286.523C29.7396 288.366 29.7389 290.208 29.7344 292.051C29.7289 294.574 29.7359 297.097 29.7458 299.62C29.7413 300.342 29.7369 301.064 29.7323 301.807C29.7988 310.581 31.2558 318.187 37.6052 324.629C44.0525 330.535 50.0642 331.297 58.5544 331.195C59.456 331.193 60.3575 331.19 61.2864 331.187C64.1493 331.176 67.0119 331.151 69.8748 331.125C71.8227 331.115 73.7706 331.106 75.7185 331.098C80.4791 331.076 85.2394 331.041 89.9998 331C90.0022 330.315 90.0045 329.631 90.007 328.925C90.0663 312.222 90.1419 295.519 90.2355 278.816C90.2803 270.739 90.3198 262.661 90.3462 254.584C90.3693 247.538 90.4027 240.494 90.4485 233.449C90.4723 229.722 90.4911 225.996 90.4974 222.27C90.5046 218.098 90.5351 213.927 90.5674 209.755C90.566 208.536 90.5645 207.317 90.563 206.06C90.7379 189.992 95.3974 177.026 106.519 165.289C118.264 154.45 131.793 150.858 147.364 150.842C148.406 150.837 149.449 150.832 150.523 150.827C154.014 150.811 157.506 150.803 160.997 150.795C163.501 150.785 166.004 150.775 168.507 150.765C173.896 150.743 179.285 150.725 184.674 150.709C192.465 150.686 200.257 150.658 208.048 150.629C220.69 150.581 233.331 150.538 245.973 150.497C258.252 150.458 270.53 150.417 282.809 150.372C283.945 150.368 283.945 150.368 285.103 150.364C288.901 150.35 292.7 150.337 296.498 150.323C327.999 150.209 359.499 150.102 391 150C391.074 144.308 391.129 138.615 391.165 132.922C391.18 130.988 391.2 129.054 391.226 127.121C391.263 124.33 391.28 121.541 391.293 118.75C391.308 117.894 391.324 117.039 391.34 116.158C391.341 109.666 390.29 104.203 386.422 98.793C385.87 98.2632 385.318 97.7334 384.75 97.1875C384.208 96.6448 383.667 96.1021 383.109 95.543C377.332 91.3173 372.139 90.5613 365.195 90.6215C364.332 90.617 363.469 90.6124 362.581 90.6078C359.703 90.5962 356.825 90.6058 353.947 90.6153C351.879 90.6112 349.81 90.6057 347.742 90.599C343.293 90.5873 338.845 90.5848 334.397 90.5893C327.363 90.5962 320.329 90.5803 313.294 90.5609C298.363 90.5231 283.431 90.5103 268.5 90.5C252.38 90.489 236.26 90.4736 220.14 90.4293C213.148 90.411 206.156 90.4071 199.164 90.4143C194.814 90.4158 190.464 90.405 186.114 90.3909C184.098 90.3869 182.082 90.388 180.066 90.3946C177.312 90.403 174.559 90.393 171.805 90.3786C170.611 90.3889 170.611 90.3889 169.393 90.3995C162.494 90.329 157.059 88.5979 152.1 83.5384C151.423 82.8579 150.746 82.1774 150.048 81.4763C148.992 80.384 148.992 80.384 147.914 79.2696C147.171 78.5191 146.429 77.7687 145.664 76.9956C143.308 74.6105 140.966 72.2122 138.625 69.8125C136.26 67.4048 133.891 65 131.521 62.5974C130.05 61.1041 128.582 59.6073 127.117 58.1069C126.459 57.4359 125.801 56.7649 125.123 56.0735C124.543 55.4786 123.962 54.8836 123.364 54.2706C122.188 52.8864 122.188 52.8864 121 53ZM125.254 189.926C121.63 195.92 120.559 200.646 120.619 207.539C120.614 208.373 120.609 209.208 120.605 210.067C120.593 212.848 120.602 215.629 120.612 218.41C120.608 220.41 120.602 222.409 120.596 224.409C120.582 229.83 120.587 235.251 120.597 240.673C120.604 246.35 120.597 252.027 120.593 257.703C120.587 267.236 120.594 276.769 120.609 286.302C120.625 297.319 120.62 308.336 120.603 319.353C120.59 328.817 120.588 338.28 120.595 347.743C120.6 353.394 120.601 359.044 120.591 364.694C120.582 370.006 120.588 375.318 120.606 380.63C120.61 382.579 120.608 384.527 120.602 386.475C120.594 389.137 120.604 391.799 120.619 394.461C120.612 395.229 120.605 395.998 120.599 396.79C120.673 403.654 122.675 408.991 127.25 414.25C127.791 414.895 128.333 415.539 128.89 416.203C134.365 420.866 139.911 421.438 146.805 421.379C147.667 421.383 148.53 421.388 149.419 421.392C152.297 421.404 155.174 421.394 158.052 421.385C160.121 421.389 162.189 421.394 164.258 421.401C168.706 421.413 173.154 421.415 177.602 421.411C184.637 421.404 191.671 421.42 198.705 421.439C213.637 421.477 228.568 421.49 243.5 421.5C259.62 421.511 275.74 421.526 291.86 421.571C298.852 421.589 305.844 421.593 312.836 421.586C317.186 421.584 321.535 421.595 325.885 421.609C327.901 421.613 329.917 421.612 331.933 421.605C334.687 421.597 337.441 421.607 340.195 421.621C341.388 421.611 341.388 421.611 342.606 421.601C349.505 421.671 354.941 423.402 359.9 428.462C360.915 429.482 360.915 429.482 361.951 430.524C362.655 431.252 363.36 431.98 364.086 432.73C364.828 433.481 365.57 434.231 366.335 435.005C368.692 437.39 371.034 439.788 373.375 442.188C375.74 444.595 378.108 447 380.478 449.403C381.95 450.896 383.418 452.393 384.882 453.893C385.54 454.564 386.198 455.235 386.876 455.927C387.457 456.522 388.038 457.116 388.636 457.729C389.811 459.114 389.811 459.114 391 459C391.022 457.866 391.022 457.866 391.044 456.709C391.119 453.264 391.215 449.819 391.312 446.375C391.335 445.185 391.357 443.995 391.381 442.77C391.607 435.404 391.841 429.997 397.437 424.688C401.536 421.989 404.953 421.876 409.803 421.874C411.556 421.868 411.556 421.868 413.344 421.863C415.235 421.861 415.235 421.861 417.164 421.859C419.154 421.846 421.145 421.832 423.135 421.817C428.034 421.779 432.932 421.747 437.83 421.75C440.579 421.75 443.327 421.738 446.075 421.711C448.657 421.685 451.239 421.679 453.821 421.693C461.497 421.587 467.68 420.604 474 416C480.867 408.326 482.316 399.643 482.254 389.613C482.257 388.82 482.26 388.026 482.263 387.209C482.271 384.577 482.265 381.945 482.259 379.313C482.261 377.414 482.265 375.516 482.269 373.618C482.278 368.482 482.275 363.346 482.268 358.21C482.263 352.825 482.268 347.44 482.271 342.055C482.275 333.013 482.27 323.971 482.26 314.93C482.25 304.489 482.253 294.048 482.264 283.606C482.273 274.629 482.275 265.651 482.269 256.673C482.266 251.317 482.266 245.961 482.272 240.605C482.278 235.568 482.274 230.532 482.263 225.495C482.26 223.651 482.261 221.807 482.265 219.963C482.271 217.437 482.264 214.912 482.254 212.387C482.258 211.664 482.263 210.942 482.267 210.197C482.201 201.422 480.745 193.815 474.394 187.371C469.21 182.622 464.357 180.753 457.245 180.743C456.114 180.736 454.983 180.73 453.818 180.723C452.585 180.726 451.353 180.729 450.083 180.733C448.766 180.728 447.449 180.724 446.092 180.719C442.442 180.707 438.792 180.707 435.143 180.709C431.204 180.71 427.265 180.699 423.326 180.689C415.611 180.673 407.897 180.667 400.182 180.666C393.909 180.665 387.637 180.661 381.365 180.655C363.577 180.637 345.789 180.628 328.001 180.629C327.043 180.629 326.084 180.629 325.096 180.629C324.136 180.63 323.176 180.63 322.187 180.63C306.632 180.63 291.078 180.611 275.523 180.583C259.547 180.554 243.571 180.541 227.594 180.542C218.627 180.543 209.659 180.538 200.692 180.516C193.056 180.498 185.421 180.493 177.785 180.507C173.891 180.514 169.997 180.514 166.103 180.496C162.534 180.481 158.965 180.483 155.396 180.501C153.503 180.505 151.61 180.49 149.717 180.474C139.984 180.553 131.623 182.073 125.254 189.926Z" fill="#7A8594"/>
<path d="M306.078 245.922C306.512 246.293 306.946 246.665 307.38 247.037C307.743 247.347 307.743 247.347 308.113 247.664C313.313 252.139 318.083 257.094 322.924 261.947C324.092 263.118 325.262 264.287 326.431 265.457C328.636 267.664 330.841 269.872 333.046 272.08C335.559 274.598 338.073 277.114 340.587 279.63C345.752 284.799 350.916 289.969 356.078 295.141C355.521 296.407 354.845 297.253 353.87 298.23C353.572 298.531 353.274 298.831 352.967 299.141C352.473 299.633 352.473 299.633 351.969 300.135C351.621 300.485 351.272 300.836 350.913 301.197C349.945 302.17 348.974 303.14 348.004 304.11C346.957 305.156 345.913 306.205 344.868 307.253C342.82 309.307 340.77 311.36 338.72 313.411C337.052 315.079 335.385 316.748 333.718 318.417C328.991 323.151 324.262 327.884 319.53 332.614C319.275 332.869 319.02 333.124 318.757 333.387C318.502 333.643 318.246 333.898 317.983 334.161C313.848 338.296 309.717 342.435 305.587 346.576C301.345 350.829 297.1 355.079 292.852 359.327C290.468 361.711 288.085 364.096 285.705 366.484C283.678 368.518 281.648 370.55 279.614 372.578C278.577 373.612 277.542 374.648 276.51 375.686C275.389 376.815 274.261 377.938 273.133 379.06C272.812 379.385 272.491 379.71 272.159 380.046C267.523 384.628 262.766 386.696 256.372 387.488C255.982 387.538 255.591 387.587 255.189 387.638C253.923 387.798 252.657 387.954 251.39 388.109C250.758 388.187 250.758 388.187 250.113 388.266C247.495 388.587 244.875 388.897 242.254 389.199C241.359 389.303 240.464 389.409 239.57 389.516C222.335 391.582 222.335 391.582 216.422 387.003C213.508 384.457 211.693 381.019 211.156 377.172C210.953 373.535 211.463 369.919 211.87 366.312C211.945 365.638 212.02 364.964 212.095 364.29C212.253 362.881 212.412 361.473 212.572 360.065C212.776 358.275 212.973 356.483 213.168 354.692C213.321 353.3 213.478 351.909 213.637 350.518C213.711 349.859 213.784 349.199 213.855 348.539C214.719 340.577 216.791 334.941 222.604 329.208C223.141 328.668 223.141 328.668 223.689 328.118C224.673 327.131 225.661 326.149 226.65 325.168C227.72 324.105 228.785 323.038 229.851 321.971C231.695 320.126 233.541 318.284 235.39 316.445C238.063 313.785 240.731 311.121 243.398 308.455C247.726 304.13 252.058 299.809 256.392 295.49C260.6 291.296 264.807 287.101 269.011 282.903C269.4 282.514 269.4 282.514 269.797 282.118C271.099 280.818 272.401 279.518 273.703 278.219C284.489 267.448 295.282 256.683 306.078 245.922Z" fill="#4C525B"/>
<path d="M360.766 214.672C363.948 217.289 366.836 220.276 369.756 223.179C369.991 223.412 370.226 223.645 370.468 223.885C371.708 225.117 372.946 226.35 374.184 227.584C375.453 228.849 376.726 230.108 378 231.367C378.99 232.346 379.975 233.329 380.96 234.312C381.428 234.778 381.897 235.243 382.367 235.706C385.548 238.84 388.327 241.929 389.794 246.239C389.973 246.751 389.973 246.751 390.156 247.272C391.66 252.296 390.996 257.534 388.646 262.182C386.262 266.204 382.662 269.393 379.368 272.67C378.952 273.085 378.537 273.5 378.122 273.915C377.042 274.993 375.961 276.071 374.879 277.147C373.771 278.252 372.663 279.358 371.556 280.463C369.393 282.622 367.228 284.78 365.062 286.937C363.561 286.319 362.613 285.365 361.473 284.223C361.175 283.926 361.175 283.926 360.87 283.622C360.203 282.957 359.54 282.289 358.876 281.621C358.399 281.144 357.921 280.666 357.444 280.189C356.148 278.893 354.854 277.595 353.561 276.296C352.209 274.939 350.854 273.585 349.5 272.23C346.937 269.664 344.375 267.095 341.814 264.527C338.899 261.602 335.981 258.68 333.063 255.758C327.06 249.748 321.06 243.734 315.062 237.719C315.754 236.239 316.615 235.281 317.771 234.116C317.967 233.917 318.162 233.719 318.364 233.514C319.011 232.86 319.661 232.208 320.312 231.557C320.765 231.101 321.219 230.645 321.673 230.188C322.625 229.231 323.579 228.276 324.533 227.322C325.749 226.106 326.96 224.885 328.168 223.663C329.105 222.718 330.045 221.776 330.986 220.836C331.433 220.387 331.879 219.938 332.324 219.487C335.412 216.361 338.484 213.649 342.724 212.206C343.065 212.087 343.405 211.967 343.757 211.844C349.605 210.093 355.743 211.322 360.766 214.672Z" fill="#4C525B"/>
</g>
<defs>
<clipPath id="clip0_110_321">
<rect width="512" height="512" fill="white"/>
</clipPath>
</defs>
</svg>
