<svg width="800" height="512" viewBox="0 0 800 512" fill="none" xmlns="http://www.w3.org/2000/svg">
<g clip-path="url(#clip0_106_196)">
<path d="M89.1876 -0.517443C91.0556 -0.522877 92.9236 -0.530008 94.7916 -0.538683C99.8164 -0.556756 104.841 -0.549915 109.866 -0.537166C115.154 -0.526955 120.442 -0.536454 125.731 -0.542711C134.607 -0.549964 143.483 -0.540462 152.359 -0.521349C162.584 -0.499585 172.809 -0.506638 183.033 -0.528654C191.853 -0.546876 200.672 -0.549334 209.491 -0.5389C214.741 -0.532702 219.99 -0.531726 225.24 -0.545046C230.178 -0.556702 235.116 -0.548402 240.054 -0.525469C241.853 -0.520233 243.653 -0.521605 245.452 -0.530519C259.718 -0.594617 273.514 0.822881 286.313 7.75014C286.969 8.09303 287.626 8.43592 288.303 8.7892C304.518 17.4752 315.666 29.4089 324.188 45.5626C324.669 46.4347 324.669 46.4347 325.16 47.3244C333.596 63.9864 332.66 82.6384 332.576 100.786C332.559 104.678 332.583 108.569 332.618 112.461C332.64 115.496 332.638 118.53 332.63 121.565C332.629 123 332.636 124.434 332.651 125.869C332.727 134.555 332.256 141.806 327 149C321.257 154.525 315.664 157.021 307.688 157.375C301.065 157.213 296.007 155.645 290.992 151.235C283.027 142.769 282.574 134.439 282.629 123.262C282.616 121.25 282.603 119.237 282.589 117.225C282.559 112.301 282.562 107.377 282.564 102.453C282.564 99.6799 282.554 96.9077 282.533 94.1351C282.514 91.5373 282.512 88.9394 282.529 86.3416C282.435 75.1626 280.126 66.1457 272.293 57.9454C265.668 52.3246 258.372 49.8524 249.811 49.8462C249.073 49.8419 248.336 49.8375 247.576 49.833C245.099 49.8196 242.621 49.8134 240.143 49.8073C238.369 49.7994 236.595 49.7911 234.821 49.7825C228.986 49.7563 223.151 49.741 217.316 49.7267C215.306 49.7213 213.296 49.716 211.286 49.7106C202.919 49.6889 194.552 49.6702 186.186 49.6589C174.208 49.6427 162.231 49.6096 150.253 49.5525C141.826 49.5138 133.399 49.4943 124.971 49.489C119.942 49.4854 114.912 49.4735 109.883 49.4409C105.144 49.4107 100.406 49.4046 95.6675 49.4163C93.9358 49.4165 92.2041 49.4083 90.4725 49.3907C78.4918 49.2752 67.9611 50.1785 58.5626 58.5626C50.4396 67.8839 49.2638 78.1642 49.3651 90.1054C49.3594 91.6004 49.3514 93.0953 49.3415 94.5903C49.3208 98.6676 49.3309 102.744 49.3464 106.822C49.3578 111.231 49.3403 115.64 49.3265 120.049C49.3044 128.674 49.3091 137.299 49.3236 145.924C49.3349 152.937 49.3364 159.949 49.331 166.961C49.3302 167.961 49.3294 168.96 49.3287 169.99C49.3271 172.021 49.3254 174.052 49.3238 176.083C49.3096 195.109 49.3259 214.134 49.3528 233.16C49.3751 249.47 49.3713 265.781 49.3482 282.091C49.3214 301.05 49.3109 320.01 49.3263 338.969C49.3279 340.992 49.3294 343.016 49.331 345.039C49.3318 346.034 49.3325 347.03 49.3333 348.055C49.3376 355.056 49.3304 362.057 49.3186 369.057C49.3045 377.593 49.3084 386.13 49.335 394.666C49.3481 399.018 49.3533 403.369 49.3367 407.721C49.3218 411.711 49.3302 415.7 49.3566 419.69C49.3622 421.128 49.3595 422.565 49.3473 424.002C49.2625 434.817 50.7951 444.591 58.1876 452.938C65.0313 459.089 73.1285 462.15 82.203 462.147C83.311 462.153 83.311 462.153 84.4415 462.158C86.924 462.169 89.4065 462.173 91.889 462.177C93.6663 462.183 95.4436 462.19 97.2209 462.197C103.065 462.218 108.91 462.228 114.754 462.238C116.767 462.242 118.78 462.247 120.792 462.251C130.252 462.27 139.711 462.284 149.17 462.292C160.082 462.302 170.993 462.328 181.905 462.369C190.342 462.399 198.78 462.414 207.217 462.417C212.254 462.419 217.292 462.428 222.329 462.454C227.072 462.477 231.815 462.481 236.559 462.471C238.295 462.47 240.03 462.477 241.766 462.49C254.544 462.586 264.383 461.397 274.02 452.289C279.892 445.501 282.116 438.174 282.142 429.371C282.145 428.713 282.149 428.056 282.152 427.378C282.16 425.954 282.165 424.529 282.169 423.104C282.176 420.841 282.192 418.578 282.21 416.315C282.262 409.882 282.31 403.448 282.326 397.015C282.336 393.074 282.366 389.134 282.407 385.194C282.42 383.7 282.425 382.207 282.423 380.714C282.412 371.169 282.758 362.379 288.895 354.598C295.698 349.152 301.361 346.381 310.219 346.649C317.203 347.531 322.5 350.601 327 356C331.053 361.63 332.125 365.151 332.177 372.047C332.184 372.762 332.19 373.476 332.197 374.212C332.217 376.582 332.228 378.951 332.238 381.32C332.242 382.135 332.246 382.949 332.251 383.789C332.272 388.114 332.286 392.438 332.295 396.763C332.306 401.186 332.34 405.609 332.38 410.032C332.407 413.467 332.415 416.903 332.418 420.338C332.423 421.965 332.435 423.592 332.454 425.22C332.606 439.297 331.187 453.723 324.313 466.313C323.973 466.962 323.633 467.611 323.284 468.279C312.8 487.697 296.125 502.273 275 509C263.949 512.082 253.514 512.436 242.131 512.404C240.274 512.41 238.416 512.417 236.558 512.425C231.552 512.443 226.545 512.442 221.539 512.436C217.342 512.433 213.145 512.439 208.948 512.445C199.038 512.459 189.129 512.458 179.219 512.446C169.034 512.435 158.849 512.449 148.664 512.476C139.883 512.498 131.102 512.504 122.321 512.498C117.093 512.495 111.865 512.497 106.636 512.515C101.716 512.53 96.7964 512.526 91.8764 512.507C90.0834 512.504 88.2905 512.507 86.4976 512.517C72.2474 512.595 58.4713 511.17 45.6876 504.25C45.0301 503.907 44.3726 503.563 43.6951 503.209C24.0232 492.663 9.50715 475.944 2.9293 454.511C0.299602 444.964 -0.574136 435.989 -0.507875 426.061C-0.512498 424.524 -0.518857 422.987 -0.526781 421.451C-0.543309 417.276 -0.535305 413.102 -0.522837 408.928C-0.51372 404.407 -0.527791 399.886 -0.538759 395.365C-0.556479 386.528 -0.552734 377.691 -0.541109 368.854C-0.532049 361.667 -0.530861 354.48 -0.535204 347.293C-0.535817 346.268 -0.536426 345.242 -0.537058 344.185C-0.538337 342.101 -0.539634 340.017 -0.540949 337.933C-0.552335 318.424 -0.539271 298.915 -0.517748 279.405C-0.499879 262.691 -0.502986 245.978 -0.521425 229.264C-0.542866 209.821 -0.551236 190.378 -0.538973 170.935C-0.537699 168.859 -0.536444 166.783 -0.535204 164.707C-0.534587 163.686 -0.53397 162.664 -0.533335 161.612C-0.529891 154.44 -0.535687 147.268 -0.545122 140.096C-0.556379 131.347 -0.553225 122.598 -0.531999 113.849C-0.521539 109.391 -0.517281 104.934 -0.530596 100.476C-0.542629 96.3847 -0.535782 92.2941 -0.514688 88.2031C-0.510268 86.7336 -0.51238 85.2641 -0.522188 83.7946C-0.603352 70.6092 1.39661 57.4246 7.75006 45.6876C8.09367 45.0301 8.43729 44.3726 8.79132 43.6952C19.3697 23.9622 35.9915 9.7122 57.3748 2.92971C68.1084 -0.00812364 78.1005 -0.572372 89.1876 -0.517443Z" fill="#7A8594"/>
<path d="M413.187 147.438C425.267 155.029 435.253 167.037 445.301 177.027C446.168 177.889 447.035 178.751 447.929 179.639C452.509 184.193 457.085 188.75 461.659 193.309C465.43 197.067 469.208 200.817 472.992 204.56C477.586 209.105 482.168 213.661 486.74 218.227C488.476 219.956 490.217 221.682 491.961 223.402C494.402 225.811 496.826 228.235 499.247 230.664C499.962 231.362 500.676 232.06 501.412 232.779C507.043 238.48 511.225 244.698 512.664 252.688C512.645 254.327 512.645 254.327 512.625 256C512.638 257.093 512.651 258.186 512.664 259.313C510.945 268.856 505.307 275.422 498.573 282.042C497.736 282.884 496.9 283.726 496.038 284.594C493.764 286.878 491.479 289.15 489.189 291.417C486.781 293.805 484.386 296.206 481.989 298.605C477.965 302.629 473.932 306.643 469.892 310.65C465.236 315.269 460.595 319.902 455.961 324.542C451.482 329.027 446.995 333.503 442.504 337.975C440.602 339.869 438.702 341.766 436.805 343.665C434.149 346.319 431.484 348.963 428.815 351.605C428.038 352.385 427.261 353.164 426.461 353.968C419.443 360.878 413.079 366.061 402.937 366.375C396.263 366.301 391.364 365.036 386 361C380.737 355.573 377.726 349.891 377.625 342.25C377.597 341.286 377.568 340.322 377.539 339.328C378.955 329.101 385.311 323.01 392.453 316.059C393.48 315.041 394.505 314.023 395.53 313.003C398.208 310.344 400.902 307.699 403.598 305.058C406.356 302.352 409.099 299.631 411.844 296.912C417.215 291.594 422.602 286.292 428 281C426.91 280.999 425.819 280.997 424.696 280.996C398.163 280.959 371.631 280.9 345.099 280.816C332.268 280.776 319.438 280.744 306.607 280.729C295.423 280.716 284.24 280.689 273.057 280.645C267.135 280.623 261.214 280.607 255.292 280.608C249.718 280.609 244.143 280.591 238.568 280.559C236.524 280.55 234.479 280.549 232.435 280.554C229.639 280.561 226.844 280.543 224.048 280.519C223.243 280.527 222.437 280.535 221.607 280.543C215.13 280.445 209.99 278.52 205.012 274.324C199.59 267.623 197.339 261.763 197.59 253.066C198.6 245.515 202.315 239.895 208.156 235.156C213.204 231.991 217.846 231.708 223.687 231.722C224.999 231.713 224.999 231.713 226.336 231.704C229.264 231.687 232.192 231.684 235.12 231.681C237.22 231.672 239.319 231.662 241.418 231.651C247.118 231.623 252.818 231.608 258.518 231.595C264.474 231.58 270.431 231.553 276.387 231.527C287.667 231.48 298.947 231.444 310.227 231.411C323.068 231.372 335.909 231.323 348.751 231.273C375.167 231.169 401.584 231.08 428 231C427.432 230.446 426.865 229.892 426.28 229.321C420.91 224.071 415.554 218.806 410.214 213.525C407.469 210.811 404.719 208.103 401.955 205.408C399.283 202.802 396.627 200.181 393.98 197.549C392.972 196.553 391.96 195.562 390.942 194.576C383.367 187.234 378.121 180.684 377.562 169.875C377.873 163.27 379.814 157.331 384.379 152.387C392.321 145.592 403.367 143.152 413.187 147.438Z" fill="#7A8594"/>
</g>
<defs>
<clipPath id="clip0_106_196">
<rect width="512" height="512" fill="white"/>
</clipPath>
</defs>
</svg>
