<svg width="512" height="512" viewBox="0 0 512 512" fill="none" xmlns="http://www.w3.org/2000/svg">
<g clip-path="url(#clip0_106_165)">
<path d="M31.9568 383.743C32.7441 383.739 33.5314 383.736 34.3426 383.732C36.985 383.723 39.6271 383.728 42.2694 383.733C44.1814 383.729 46.0933 383.724 48.0053 383.719C53.2628 383.707 58.5202 383.707 63.7777 383.709C69.4466 383.71 75.1154 383.699 80.7843 383.689C91.8921 383.673 103 383.667 114.108 383.666C123.136 383.665 132.164 383.661 141.192 383.655C162.618 383.64 184.043 383.628 205.469 383.629C206.497 383.629 206.497 383.629 207.545 383.629C211.018 383.629 214.491 383.629 217.964 383.629C218.654 383.629 219.343 383.629 220.054 383.63C221.449 383.63 222.843 383.63 224.238 383.63C245.936 383.631 267.635 383.616 289.333 383.589C313.713 383.558 338.092 383.541 362.472 383.543C375.38 383.543 388.287 383.538 401.195 383.516C412.185 383.498 423.175 383.494 434.165 383.507C439.772 383.514 445.379 383.514 450.986 383.497C456.121 383.481 461.256 383.484 466.39 383.501C468.246 383.504 470.102 383.5 471.958 383.489C483.834 383.423 494.336 383.767 503.469 392.297C510.862 400.521 512.582 409.235 512.312 420.012C511.838 428.398 508.225 435.403 502 441C495.121 446.173 488.685 448.306 480.043 448.258C479.256 448.261 478.468 448.265 477.657 448.268C475.015 448.277 472.373 448.273 469.73 448.268C467.819 448.271 465.907 448.276 463.995 448.281C458.737 448.294 453.48 448.293 448.222 448.291C442.553 448.291 436.884 448.302 431.216 448.311C420.108 448.328 409 448.333 397.892 448.334C388.864 448.335 379.836 448.339 370.808 448.346C349.382 448.36 327.957 448.373 306.531 448.372C305.503 448.372 305.503 448.372 304.455 448.372C300.982 448.371 297.509 448.371 294.036 448.371C293.346 448.371 292.657 448.371 291.946 448.371C290.551 448.371 289.156 448.371 287.762 448.371C266.063 448.369 244.365 448.385 222.667 448.412C198.287 448.443 173.908 448.46 149.528 448.458C136.62 448.457 123.713 448.463 110.805 448.484C99.8149 448.502 88.825 448.507 77.8351 448.493C72.2278 448.487 66.6207 448.487 61.0134 448.504C55.8787 448.52 50.7444 448.517 45.6097 448.499C43.7537 448.496 41.8977 448.5 40.0417 448.511C28.1658 448.578 17.664 448.233 8.5312 439.703C1.13754 431.48 -0.581948 422.766 -0.312548 411.989C0.161779 403.603 3.77465 396.597 9.99995 391C16.879 385.827 23.315 383.694 31.9568 383.743Z" fill="#7A8594"/>
<path d="M31.9568 223.743C32.7441 223.739 33.5314 223.736 34.3426 223.732C36.985 223.723 39.6271 223.728 42.2694 223.733C44.1814 223.729 46.0933 223.724 48.0053 223.719C53.2628 223.707 58.5202 223.707 63.7777 223.709C69.4466 223.71 75.1154 223.699 80.7843 223.689C91.8921 223.672 103 223.667 114.108 223.666C123.136 223.665 132.164 223.661 141.192 223.654C162.618 223.64 184.043 223.627 205.469 223.628C206.497 223.629 206.497 223.629 207.545 223.629C211.018 223.629 214.491 223.629 217.964 223.629C218.654 223.629 219.343 223.629 220.054 223.629C221.449 223.629 222.843 223.629 224.238 223.63C245.936 223.631 267.635 223.616 289.333 223.588C313.713 223.558 338.092 223.54 362.472 223.542C375.38 223.543 388.287 223.537 401.195 223.516C412.185 223.498 423.175 223.493 434.165 223.507C439.772 223.514 445.379 223.514 450.986 223.496C456.121 223.481 461.256 223.483 466.39 223.501C468.246 223.504 470.102 223.5 471.958 223.489C483.834 223.423 494.336 223.767 503.469 232.297C510.862 240.52 512.582 249.234 512.312 260.012C511.838 268.397 508.225 275.403 502 281C495.121 286.173 488.685 288.306 480.043 288.257C479.256 288.261 478.468 288.264 477.657 288.268C475.015 288.277 472.373 288.272 469.73 288.267C467.819 288.271 465.907 288.276 463.995 288.281C458.737 288.293 453.48 288.293 448.222 288.291C442.553 288.29 436.884 288.301 431.216 288.311C420.108 288.328 409 288.333 397.892 288.334C388.864 288.335 379.836 288.339 370.808 288.346C349.382 288.36 327.957 288.373 306.531 288.372C305.503 288.371 305.503 288.371 304.455 288.371C300.982 288.371 297.509 288.371 294.036 288.371C293.346 288.371 292.657 288.371 291.946 288.371C290.551 288.371 289.156 288.371 287.762 288.37C266.063 288.369 244.365 288.384 222.667 288.412C198.287 288.442 173.908 288.46 149.528 288.458C136.62 288.457 123.713 288.463 110.805 288.484C99.8149 288.502 88.825 288.507 77.8351 288.493C72.2278 288.486 66.6207 288.486 61.0134 288.504C55.8787 288.519 50.7444 288.517 45.6097 288.499C43.7537 288.496 41.8977 288.5 40.0417 288.511C28.1658 288.577 17.664 288.233 8.5312 279.703C1.13754 271.48 -0.581948 262.766 -0.312548 251.988C0.161779 243.603 3.77465 236.597 9.99995 231C16.879 225.827 23.315 223.694 31.9568 223.743Z" fill="#7A8594"/>
<path d="M31.9568 63.7427C32.7441 63.7392 33.5314 63.7357 34.3426 63.7321C36.985 63.7228 39.6271 63.7277 42.2694 63.7326C44.1814 63.7288 46.0933 63.7242 48.0053 63.7188C53.2628 63.7066 58.5202 63.7069 63.7777 63.7092C69.4466 63.7096 75.1154 63.6986 80.7843 63.6891C91.8921 63.6725 103 63.667 114.108 63.6659C123.136 63.6649 132.164 63.6608 141.192 63.6545C162.618 63.6397 184.043 63.6274 205.469 63.6285C206.497 63.6285 206.497 63.6285 207.545 63.6286C211.018 63.6288 214.491 63.6289 217.964 63.6292C218.654 63.6292 219.343 63.6292 220.054 63.6293C221.449 63.6294 222.843 63.6294 224.238 63.6295C245.936 63.6308 267.635 63.6157 289.333 63.5884C313.713 63.5577 338.092 63.5405 362.472 63.5423C375.38 63.543 388.287 63.5375 401.195 63.516C412.185 63.4978 423.175 63.4934 434.165 63.507C439.772 63.5135 445.379 63.5136 450.986 63.4963C456.121 63.4806 461.256 63.4834 466.39 63.5008C468.246 63.5039 470.102 63.5002 471.958 63.4891C483.834 63.4226 494.336 63.7672 503.469 72.2969C510.862 80.5204 512.582 89.2345 512.312 100.012C511.838 108.397 508.225 115.403 502 121C495.121 126.173 488.685 128.306 480.043 128.257C479.256 128.261 478.468 128.264 477.657 128.268C475.015 128.277 472.373 128.272 469.73 128.267C467.819 128.271 465.907 128.276 463.995 128.281C458.737 128.293 453.48 128.293 448.222 128.291C442.553 128.29 436.884 128.301 431.216 128.311C420.108 128.328 409 128.333 397.892 128.334C388.864 128.335 379.836 128.339 370.808 128.346C349.382 128.36 327.957 128.373 306.531 128.372C305.503 128.371 305.503 128.371 304.455 128.371C300.982 128.371 297.509 128.371 294.036 128.371C293.346 128.371 292.657 128.371 291.946 128.371C290.551 128.371 289.156 128.371 287.762 128.37C266.063 128.369 244.365 128.384 222.667 128.412C198.287 128.442 173.908 128.46 149.528 128.458C136.62 128.457 123.713 128.463 110.805 128.484C99.8149 128.502 88.825 128.507 77.8351 128.493C72.2278 128.486 66.6207 128.486 61.0134 128.504C55.8787 128.519 50.7444 128.517 45.6097 128.499C43.7537 128.496 41.8977 128.5 40.0417 128.511C28.1658 128.577 17.664 128.233 8.5312 119.703C1.13754 111.48 -0.581948 102.766 -0.312548 91.9883C0.161779 83.6026 3.77465 76.5971 9.99995 71C16.879 65.827 23.315 63.6938 31.9568 63.7427Z" fill="#7A8594"/>
</g>
<defs>
<clipPath id="clip0_106_165">
<rect width="512" height="512" fill="white"/>
</clipPath>
</defs>
</svg>
