<svg width="800" height="512" viewBox="0 0 800 512" fill="none" xmlns="http://www.w3.org/2000/svg">
<path d="M64.7528 281.853C65.902 281.846 67.0513 281.839 68.2354 281.831C70.1134 281.827 70.1134 281.827 72.0293 281.823C73.3685 281.817 74.7078 281.81 76.047 281.803C80.4376 281.782 84.8281 281.772 89.2188 281.762C90.7356 281.758 92.2525 281.754 93.7693 281.749C100.901 281.73 108.033 281.716 115.165 281.708C123.369 281.698 131.573 281.672 139.778 281.631C146.136 281.601 152.495 281.586 158.854 281.583C162.643 281.581 166.432 281.572 170.221 281.547C173.794 281.523 177.365 281.519 180.938 281.529C182.852 281.53 184.766 281.511 186.68 281.491C199.85 281.569 210.357 284.703 219.898 293.812C227.083 301.331 230.103 310.455 230.147 320.753C230.158 322.477 230.158 322.477 230.169 324.235C230.172 325.487 230.174 326.739 230.177 328.029C230.183 329.369 230.19 330.708 230.197 332.047C230.218 336.438 230.228 340.828 230.238 345.219C230.242 346.736 230.246 348.252 230.251 349.769C230.27 356.901 230.284 364.033 230.292 371.165C230.302 379.369 230.328 387.573 230.369 395.778C230.399 402.136 230.414 408.495 230.417 414.854C230.419 418.643 230.428 422.432 230.453 426.221C230.477 429.794 230.481 433.365 230.471 436.938C230.47 438.852 230.489 440.766 230.509 442.68C230.431 455.85 227.297 466.357 218.188 475.898C210.669 483.083 201.545 486.103 191.247 486.147C189.523 486.158 189.523 486.158 187.765 486.169C186.513 486.172 185.261 486.174 183.971 486.177C182.631 486.183 181.292 486.19 179.953 486.197C175.562 486.218 171.172 486.228 166.781 486.238C165.264 486.242 163.748 486.246 162.231 486.251C155.099 486.27 147.967 486.284 140.835 486.292C132.631 486.302 124.427 486.328 116.222 486.369C109.864 486.399 103.505 486.414 97.1463 486.417C93.357 486.419 89.568 486.428 85.7787 486.453C82.2064 486.477 78.6347 486.481 75.0623 486.471C73.148 486.47 71.2338 486.489 69.3196 486.509C56.1497 486.431 45.6429 483.297 36.1016 474.188C28.9168 466.669 25.897 457.545 25.8528 447.247C25.8457 446.098 25.8385 444.949 25.8311 443.765C25.8285 442.513 25.8258 441.261 25.823 439.971C25.8167 438.631 25.8101 437.292 25.8031 435.953C25.7821 431.562 25.7717 427.172 25.7617 422.781C25.7577 421.264 25.7535 419.748 25.7494 418.231C25.7303 411.099 25.7161 403.967 25.7078 396.835C25.698 388.631 25.6717 380.427 25.6313 372.222C25.601 365.864 25.5863 359.505 25.583 353.146C25.5806 349.357 25.5718 345.568 25.5465 341.779C25.523 338.206 25.5191 334.635 25.5293 331.062C25.53 329.148 25.5111 327.234 25.4912 325.32C25.5693 312.15 28.7031 301.643 37.8125 292.102C45.3307 284.917 54.455 281.897 64.7528 281.853ZM59 319C58.403 321.555 58.403 321.555 58.4921 324.389C58.4808 325.483 58.4695 326.577 58.4579 327.703C58.466 328.898 58.4741 330.093 58.4824 331.324C58.4754 332.586 58.4684 333.848 58.4612 335.149C58.443 338.608 58.45 342.066 58.4627 345.525C58.4728 349.145 58.4634 352.765 58.4572 356.385C58.4499 362.465 58.4595 368.544 58.4785 374.624C58.5003 381.652 58.4932 388.679 58.4712 395.707C58.4531 401.742 58.4505 407.777 58.461 413.812C58.4672 417.416 58.468 421.02 58.4548 424.624C58.4411 428.641 58.4601 432.658 58.4824 436.676C58.4743 437.871 58.4662 439.066 58.4579 440.297C58.4692 441.39 58.4804 442.484 58.4921 443.611C58.4936 444.56 58.4951 445.51 58.4966 446.489C59.1661 449.829 60.2733 450.995 63 453C65.5547 453.597 65.5547 453.597 68.3894 453.508C69.483 453.519 70.5765 453.53 71.7032 453.542C72.8981 453.534 74.0931 453.526 75.3242 453.518C76.5863 453.525 77.8485 453.532 79.1488 453.539C82.6076 453.557 86.0659 453.55 89.5246 453.537C93.1449 453.527 96.7652 453.537 100.385 453.543C106.465 453.55 112.544 453.541 118.624 453.521C125.652 453.5 132.679 453.507 139.707 453.529C145.742 453.547 151.777 453.549 157.812 453.539C161.416 453.533 165.02 453.532 168.624 453.545C172.641 453.559 176.658 453.54 180.676 453.518C181.871 453.526 183.066 453.534 184.297 453.542C185.39 453.531 186.484 453.52 187.611 453.508C188.56 453.506 189.51 453.505 190.489 453.503C193.829 452.834 194.995 451.727 197 449C197.597 446.445 197.597 446.445 197.508 443.611C197.519 442.517 197.53 441.423 197.542 440.297C197.534 439.102 197.526 437.907 197.518 436.676C197.525 435.414 197.532 434.152 197.539 432.851C197.557 429.392 197.55 425.934 197.537 422.475C197.527 418.855 197.537 415.235 197.543 411.615C197.55 405.535 197.541 399.456 197.521 393.376C197.5 386.348 197.507 379.321 197.529 372.293C197.547 366.258 197.549 360.223 197.539 354.188C197.533 350.584 197.532 346.98 197.545 343.376C197.559 339.359 197.54 335.342 197.518 331.324C197.526 330.129 197.534 328.934 197.542 327.703C197.531 326.61 197.52 325.516 197.508 324.389C197.506 323.44 197.505 322.49 197.503 321.511C196.834 318.171 195.727 317.005 193 315C190.445 314.403 190.445 314.403 187.611 314.492C185.97 314.475 185.97 314.475 184.297 314.458C182.504 314.47 182.504 314.47 180.676 314.482C179.414 314.475 178.152 314.468 176.851 314.461C173.392 314.443 169.934 314.45 166.475 314.463C162.855 314.473 159.235 314.463 155.615 314.457C149.535 314.45 143.456 314.459 137.376 314.479C130.348 314.5 123.321 314.493 116.293 314.471C110.258 314.453 104.223 314.45 98.188 314.461C94.5839 314.467 90.9801 314.468 87.3761 314.455C83.3585 314.441 79.3418 314.46 75.3242 314.482C73.5318 314.47 73.5318 314.47 71.7032 314.458C70.6097 314.469 69.5161 314.48 68.3894 314.492C67.4396 314.494 66.4898 314.495 65.5113 314.497C62.1713 315.166 61.0049 316.273 59 319Z" fill="white"/>
<path d="M320.753 25.8528C321.902 25.8457 323.051 25.8385 324.235 25.8311C326.113 25.8271 326.113 25.8271 328.029 25.823C329.369 25.8167 330.708 25.8101 332.047 25.8031C336.438 25.7821 340.828 25.7717 345.219 25.7617C346.736 25.7577 348.252 25.7536 349.769 25.7494C356.901 25.7303 364.033 25.7161 371.165 25.7078C379.369 25.698 387.573 25.6717 395.778 25.6313C402.136 25.601 408.495 25.5863 414.854 25.583C418.643 25.5806 422.432 25.5718 426.221 25.5465C429.794 25.523 433.365 25.5191 436.938 25.5293C438.852 25.53 440.766 25.5111 442.68 25.4912C455.85 25.5693 466.357 28.7031 475.898 37.8125C483.083 45.3307 486.103 54.455 486.147 64.7528C486.158 66.4767 486.158 66.4767 486.169 68.2354C486.172 69.4874 486.174 70.7394 486.177 72.0293C486.183 73.3685 486.19 74.7078 486.197 76.047C486.218 80.4376 486.228 84.8281 486.238 89.2188C486.242 90.7356 486.246 92.2525 486.251 93.7693C486.27 100.901 486.284 108.033 486.292 115.165C486.302 123.369 486.328 131.573 486.369 139.778C486.399 146.136 486.414 152.495 486.417 158.854C486.419 162.643 486.428 166.432 486.453 170.221C486.477 173.794 486.481 177.365 486.471 180.938C486.47 182.852 486.489 184.766 486.509 186.68C486.431 199.85 483.297 210.357 474.188 219.898C466.669 227.083 457.545 230.103 447.247 230.147C445.523 230.158 445.523 230.158 443.765 230.169C442.513 230.172 441.261 230.174 439.971 230.177C438.631 230.183 437.292 230.19 435.953 230.197C431.562 230.218 427.172 230.228 422.781 230.238C421.264 230.242 419.748 230.246 418.231 230.251C411.099 230.27 403.967 230.284 396.835 230.292C388.631 230.302 380.427 230.328 372.222 230.369C365.864 230.399 359.505 230.414 353.146 230.417C349.357 230.419 345.568 230.428 341.779 230.453C338.206 230.477 334.635 230.481 331.062 230.471C329.148 230.47 327.234 230.489 325.32 230.509C312.15 230.431 301.643 227.297 292.102 218.188C284.917 210.669 281.897 201.545 281.853 191.247C281.846 190.098 281.839 188.949 281.831 187.765C281.828 186.513 281.826 185.261 281.823 183.971C281.817 182.631 281.81 181.292 281.803 179.953C281.782 175.562 281.772 171.172 281.762 166.781C281.758 165.264 281.754 163.748 281.749 162.231C281.73 155.099 281.716 147.967 281.708 140.835C281.698 132.631 281.672 124.427 281.631 116.222C281.601 109.864 281.586 103.505 281.583 97.1463C281.581 93.357 281.572 89.568 281.547 85.7787C281.523 82.2064 281.519 78.6347 281.529 75.0623C281.53 73.148 281.511 71.2338 281.491 69.3196C281.569 56.1497 284.703 45.6429 293.812 36.1016C301.331 28.9168 310.455 25.897 320.753 25.8528ZM315 63C314.403 65.5547 314.403 65.5547 314.492 68.3894C314.481 69.483 314.47 70.5765 314.458 71.7032C314.466 72.8981 314.474 74.0931 314.482 75.3242C314.475 76.5863 314.468 77.8485 314.461 79.1488C314.443 82.6076 314.45 86.0659 314.463 89.5246C314.473 93.1449 314.463 96.7652 314.457 100.385C314.45 106.465 314.459 112.544 314.479 118.624C314.5 125.652 314.493 132.679 314.471 139.707C314.453 145.742 314.45 151.777 314.461 157.812C314.467 161.416 314.468 165.02 314.455 168.624C314.441 172.641 314.46 176.658 314.482 180.676C314.474 181.871 314.466 183.066 314.458 184.297C314.469 185.39 314.48 186.484 314.492 187.611C314.494 188.56 314.495 189.51 314.497 190.489C315.166 193.829 316.273 194.995 319 197C321.555 197.597 321.555 197.597 324.389 197.508C325.483 197.519 326.577 197.53 327.703 197.542C328.898 197.534 330.093 197.526 331.324 197.518C332.586 197.525 333.848 197.532 335.149 197.539C338.608 197.557 342.066 197.55 345.525 197.537C349.145 197.527 352.765 197.537 356.385 197.543C362.465 197.55 368.544 197.541 374.624 197.521C381.652 197.5 388.679 197.507 395.707 197.529C401.742 197.547 407.777 197.549 413.812 197.539C417.416 197.533 421.02 197.532 424.624 197.545C428.641 197.559 432.658 197.54 436.676 197.518C437.871 197.526 439.066 197.534 440.297 197.542C441.39 197.531 442.484 197.52 443.611 197.508C444.56 197.506 445.51 197.505 446.489 197.503C449.829 196.834 450.995 195.727 453 193C453.597 190.445 453.597 190.445 453.508 187.611C453.519 186.517 453.53 185.423 453.542 184.297C453.534 183.102 453.526 181.907 453.518 180.676C453.525 179.414 453.532 178.152 453.539 176.851C453.557 173.392 453.55 169.934 453.537 166.475C453.527 162.855 453.537 159.235 453.543 155.615C453.55 149.535 453.541 143.456 453.521 137.376C453.5 130.348 453.507 123.321 453.529 116.293C453.547 110.258 453.549 104.223 453.539 98.188C453.533 94.5839 453.532 90.9801 453.545 87.3761C453.559 83.3585 453.54 79.3418 453.518 75.3242C453.526 74.1293 453.534 72.9344 453.542 71.7032C453.531 70.6097 453.52 69.5161 453.508 68.3894C453.506 67.4396 453.505 66.4898 453.503 65.5113C452.834 62.1713 451.727 61.0049 449 59C446.445 58.403 446.445 58.403 443.611 58.4921C441.97 58.4751 441.97 58.4751 440.297 58.4579C438.504 58.47 438.504 58.47 436.676 58.4824C435.414 58.4754 434.152 58.4684 432.851 58.4612C429.392 58.443 425.934 58.45 422.475 58.4627C418.855 58.4728 415.235 58.4634 411.615 58.4572C405.535 58.4499 399.456 58.4595 393.376 58.4785C386.348 58.5003 379.321 58.4932 372.293 58.4712C366.258 58.4531 360.223 58.4505 354.188 58.461C350.584 58.4672 346.98 58.468 343.376 58.4548C339.359 58.4411 335.342 58.4601 331.324 58.4824C329.532 58.4703 329.532 58.4703 327.703 58.4579C326.61 58.4692 325.516 58.4804 324.389 58.4921C323.44 58.4936 322.49 58.4951 321.511 58.4966C318.171 59.1661 317.005 60.2733 315 63Z" fill="white"/>
<path d="M64.7528 25.8528C65.902 25.8457 67.0513 25.8385 68.2354 25.8311C70.1134 25.8271 70.1134 25.8271 72.0293 25.823C73.3685 25.8167 74.7078 25.8101 76.047 25.8031C80.4376 25.7821 84.8281 25.7717 89.2188 25.7617C90.7356 25.7577 92.2525 25.7536 93.7693 25.7494C100.901 25.7303 108.033 25.7161 115.165 25.7078C123.369 25.698 131.573 25.6717 139.778 25.6313C146.136 25.601 152.495 25.5863 158.854 25.583C162.643 25.5806 166.432 25.5718 170.221 25.5465C173.794 25.523 177.365 25.5191 180.938 25.5293C182.852 25.53 184.766 25.5111 186.68 25.4912C199.85 25.5693 210.357 28.7031 219.898 37.8125C227.083 45.3307 230.103 54.455 230.147 64.7528C230.158 66.4767 230.158 66.4767 230.169 68.2354C230.172 69.4874 230.174 70.7394 230.177 72.0293C230.183 73.3685 230.19 74.7078 230.197 76.047C230.218 80.4376 230.228 84.8281 230.238 89.2188C230.242 90.7356 230.246 92.2525 230.251 93.7693C230.27 100.901 230.284 108.033 230.292 115.165C230.302 123.369 230.328 131.573 230.369 139.778C230.399 146.136 230.414 152.495 230.417 158.854C230.419 162.643 230.428 166.432 230.453 170.221C230.477 173.794 230.481 177.365 230.471 180.938C230.47 182.852 230.489 184.766 230.509 186.68C230.431 199.85 227.297 210.357 218.188 219.898C210.669 227.083 201.545 230.103 191.247 230.147C189.523 230.158 189.523 230.158 187.765 230.169C186.513 230.172 185.261 230.174 183.971 230.177C182.631 230.183 181.292 230.19 179.953 230.197C175.562 230.218 171.172 230.228 166.781 230.238C165.264 230.242 163.748 230.246 162.231 230.251C155.099 230.27 147.967 230.284 140.835 230.292C132.631 230.302 124.427 230.328 116.222 230.369C109.864 230.399 103.505 230.414 97.1463 230.417C93.357 230.419 89.568 230.428 85.7787 230.453C82.2064 230.477 78.6347 230.481 75.0623 230.471C73.148 230.47 71.2338 230.489 69.3196 230.509C56.1497 230.431 45.6429 227.297 36.1016 218.188C28.9168 210.669 25.897 201.545 25.8528 191.247C25.8457 190.098 25.8385 188.949 25.8311 187.765C25.8285 186.513 25.8258 185.261 25.823 183.971C25.8167 182.631 25.8101 181.292 25.8031 179.953C25.7821 175.562 25.7717 171.172 25.7617 166.781C25.7577 165.264 25.7535 163.748 25.7494 162.231C25.7303 155.099 25.7161 147.967 25.7078 140.835C25.698 132.631 25.6717 124.427 25.6313 116.222C25.601 109.864 25.5863 103.505 25.583 97.1463C25.5806 93.357 25.5718 89.568 25.5465 85.7787C25.523 82.2064 25.5191 78.6347 25.5293 75.0623C25.53 73.148 25.5111 71.2338 25.4912 69.3196C25.5693 56.1497 28.7031 45.6429 37.8125 36.1016C45.3307 28.9168 54.455 25.897 64.7528 25.8528ZM59 63C58.403 65.5547 58.403 65.5547 58.4921 68.3894C58.4808 69.483 58.4695 70.5765 58.4579 71.7032C58.466 72.8981 58.4741 74.0931 58.4824 75.3242C58.4754 76.5863 58.4684 77.8485 58.4612 79.1488C58.443 82.6076 58.45 86.0659 58.4627 89.5246C58.4728 93.1449 58.4634 96.7652 58.4572 100.385C58.4499 106.465 58.4595 112.544 58.4785 118.624C58.5003 125.652 58.4932 132.679 58.4712 139.707C58.4531 145.742 58.4505 151.777 58.461 157.812C58.4672 161.416 58.468 165.02 58.4548 168.624C58.4411 172.641 58.4601 176.658 58.4824 180.676C58.4743 181.871 58.4662 183.066 58.4579 184.297C58.4692 185.39 58.4804 186.484 58.4921 187.611C58.4936 188.56 58.4951 189.51 58.4966 190.489C59.1661 193.829 60.2733 194.995 63 197C65.5547 197.597 65.5547 197.597 68.3894 197.508C69.483 197.519 70.5765 197.53 71.7032 197.542C72.8981 197.534 74.0931 197.526 75.3242 197.518C76.5863 197.525 77.8485 197.532 79.1488 197.539C82.6076 197.557 86.0659 197.55 89.5246 197.537C93.1449 197.527 96.7652 197.537 100.385 197.543C106.465 197.55 112.544 197.541 118.624 197.521C125.652 197.5 132.679 197.507 139.707 197.529C145.742 197.547 151.777 197.549 157.812 197.539C161.416 197.533 165.02 197.532 168.624 197.545C172.641 197.559 176.658 197.54 180.676 197.518C181.871 197.526 183.066 197.534 184.297 197.542C185.39 197.531 186.484 197.52 187.611 197.508C188.56 197.506 189.51 197.505 190.489 197.503C193.829 196.834 194.995 195.727 197 193C197.597 190.445 197.597 190.445 197.508 187.611C197.519 186.517 197.53 185.423 197.542 184.297C197.534 183.102 197.526 181.907 197.518 180.676C197.525 179.414 197.532 178.152 197.539 176.851C197.557 173.392 197.55 169.934 197.537 166.475C197.527 162.855 197.537 159.235 197.543 155.615C197.55 149.535 197.541 143.456 197.521 137.376C197.5 130.348 197.507 123.321 197.529 116.293C197.547 110.258 197.549 104.223 197.539 98.188C197.533 94.5839 197.532 90.9801 197.545 87.3761C197.559 83.3585 197.54 79.3418 197.518 75.3242C197.526 74.1293 197.534 72.9344 197.542 71.7032C197.531 70.6097 197.52 69.5161 197.508 68.3894C197.506 67.4396 197.505 66.4898 197.503 65.5113C196.834 62.1713 195.727 61.0049 193 59C190.445 58.403 190.445 58.403 187.611 58.4921C185.97 58.4751 185.97 58.4751 184.297 58.4579C182.504 58.47 182.504 58.47 180.676 58.4824C179.414 58.4754 178.152 58.4684 176.851 58.4612C173.392 58.443 169.934 58.45 166.475 58.4627C162.855 58.4728 159.235 58.4634 155.615 58.4572C149.535 58.4499 143.456 58.4595 137.376 58.4785C130.348 58.5003 123.321 58.4932 116.293 58.4712C110.258 58.4531 104.223 58.4505 98.188 58.461C94.5839 58.4672 90.9801 58.468 87.3761 58.4548C83.3585 58.4411 79.3418 58.4601 75.3242 58.4824C73.5318 58.4703 73.5318 58.4703 71.7032 58.4579C70.6097 58.4692 69.5161 58.4804 68.3894 58.4921C67.4396 58.4936 66.4898 58.4951 65.5113 58.4966C62.1713 59.1661 61.0049 60.2733 59 63Z" fill="white"/>
<path d="M403 276C409.191 280.254 414.609 285.311 419.903 290.613C420.636 291.339 421.369 292.065 422.124 292.813C424.519 295.189 426.906 297.573 429.293 299.957C430.969 301.627 432.646 303.297 434.323 304.967C437.826 308.458 441.324 311.952 444.82 315.45C449.285 319.915 453.764 324.366 458.246 328.814C461.709 332.255 465.164 335.705 468.615 339.158C470.262 340.803 471.912 342.444 473.566 344.082C475.882 346.378 478.185 348.687 480.485 350.999C481.16 351.663 481.835 352.327 482.53 353.011C491.979 362.585 496.437 372.337 496.363 385.866C495.983 400.566 487.331 409.973 477.387 419.903C476.661 420.636 475.935 421.369 475.187 422.124C472.811 424.519 470.427 426.906 468.043 429.293C466.373 430.97 464.703 432.646 463.033 434.323C459.542 437.826 456.048 441.324 452.55 444.82C448.085 449.285 443.634 453.764 439.186 458.246C435.745 461.709 432.295 465.164 428.842 468.615C427.197 470.262 425.556 471.912 423.918 473.566C421.622 475.882 419.313 478.185 417.001 480.485C416.337 481.16 415.673 481.835 414.989 482.53C405.415 491.98 395.663 496.437 382.134 496.364C367.434 495.983 358.027 487.331 348.097 477.388C347.364 476.661 346.631 475.935 345.876 475.187C343.481 472.811 341.093 470.427 338.707 468.043C337.03 466.373 335.354 464.703 333.677 463.033C330.174 459.542 326.676 456.048 323.18 452.551C318.715 448.085 314.236 443.634 309.754 439.186C306.291 435.745 302.836 432.295 299.385 428.842C297.738 427.198 296.088 425.556 294.434 423.918C292.118 421.622 289.815 419.313 287.515 417.001C286.84 416.337 286.165 415.673 285.47 414.99C276.02 405.416 271.563 395.663 271.636 382.135C272.017 367.434 280.669 358.027 290.612 348.097C291.339 347.364 292.065 346.631 292.813 345.876C295.189 343.481 297.573 341.094 299.957 338.707C301.627 337.031 303.297 335.354 304.967 333.677C308.458 330.174 311.952 326.676 315.449 323.18C319.915 318.715 324.366 314.236 328.814 309.754C332.255 306.291 335.705 302.836 339.158 299.385C340.802 297.738 342.444 296.088 344.082 294.434C346.378 292.118 348.687 289.815 350.999 287.515C351.663 286.84 352.327 286.165 353.01 285.47C366.547 272.11 385.549 266.968 403 276ZM373.342 311.881C372.6 312.613 371.858 313.345 371.093 314.098C368.643 316.522 366.216 318.967 363.789 321.414C362.094 323.105 360.399 324.794 358.703 326.483C355.151 330.026 351.61 333.58 348.077 337.141C343.544 341.708 338.984 346.248 334.417 350.78C330.911 354.264 327.419 357.762 323.932 361.265C322.256 362.945 320.576 364.62 318.891 366.291C316.54 368.627 314.208 370.982 311.881 373.342C310.829 374.376 310.829 374.376 309.756 375.43C307.018 378.243 305.232 380.19 304.14 384C305.477 388.664 308.474 391.31 311.881 394.658C312.613 395.4 313.345 396.142 314.098 396.907C316.522 399.357 318.967 401.784 321.414 404.211C323.104 405.905 324.794 407.601 326.483 409.297C330.026 412.849 333.58 416.39 337.141 419.923C341.708 424.456 346.248 429.016 350.78 433.583C354.264 437.089 357.762 440.581 361.265 444.068C362.945 445.744 364.62 447.424 366.291 449.109C368.627 451.46 370.982 453.792 373.342 456.119C374.031 456.82 374.72 457.521 375.43 458.244C378.243 460.982 380.19 462.768 384 463.86C388.663 462.523 391.31 459.526 394.658 456.119C395.771 455.021 395.771 455.021 396.907 453.902C399.357 451.478 401.784 449.033 404.211 446.586C405.905 444.896 407.601 443.206 409.297 441.517C412.849 437.974 416.39 434.42 419.923 430.859C424.456 426.292 429.015 421.752 433.583 417.22C437.089 413.736 440.581 410.238 444.068 406.735C445.743 405.055 447.424 403.38 449.108 401.709C451.46 399.373 453.791 397.018 456.119 394.658C456.82 393.969 457.521 393.28 458.243 392.57C460.982 389.757 462.768 387.81 463.86 384C462.523 379.337 459.526 376.69 456.119 373.342C455.021 372.229 455.021 372.229 453.901 371.093C451.478 368.643 449.033 366.216 446.586 363.789C444.895 362.095 443.206 360.399 441.517 358.703C437.974 355.151 434.42 351.61 430.859 348.077C426.292 343.544 421.752 338.985 417.22 334.417C413.736 330.911 410.238 327.419 406.735 323.932C405.055 322.257 403.38 320.576 401.709 318.892C399.373 316.54 397.018 314.209 394.658 311.881C393.624 310.83 393.624 310.83 392.569 309.756C389.757 307.018 387.81 305.232 384 304.14C379.336 305.477 376.69 308.474 373.342 311.881Z" fill="white"/>
</svg>
