<svg width="800" height="512" viewBox="0 0 800 512" fill="none" xmlns="http://www.w3.org/2000/svg">
<path d="M221.715 281.602C224.465 281.601 227.215 281.597 229.964 281.593C235.699 281.587 241.433 281.594 247.168 281.609C253.739 281.625 260.311 281.62 266.883 281.603C272.586 281.59 278.289 281.588 283.993 281.596C287.372 281.6 290.752 281.6 294.131 281.591C312.79 281.553 331.324 281.949 349.25 287.75C350.071 288.008 350.892 288.266 351.738 288.532C372.044 295.101 390.392 305.378 406 320C406.572 320.53 407.144 321.059 407.733 321.605C429.839 342.257 448.471 371.289 451.277 402.039C451.793 417.662 446.844 432.709 436.5 444.5C435.021 446.021 433.523 447.523 432 449C431.437 449.572 430.873 450.145 430.293 450.734C419.515 460.909 405.099 464.464 390.737 464.394C388.939 464.404 388.939 464.404 387.105 464.413C383.804 464.427 380.504 464.427 377.204 464.421C373.634 464.419 370.064 464.433 366.494 464.446C359.509 464.467 352.524 464.471 345.539 464.469C339.857 464.468 334.176 464.472 328.494 464.479C326.854 464.481 325.214 464.483 323.573 464.486C322.757 464.487 321.94 464.488 321.099 464.489C305.674 464.508 290.249 464.507 274.824 464.5C260.738 464.494 246.651 464.515 232.565 464.548C218.077 464.582 203.589 464.597 189.1 464.592C180.976 464.59 172.852 464.595 164.728 464.62C157.81 464.641 150.892 464.645 143.973 464.626C140.449 464.617 136.926 464.616 133.402 464.636C111.414 464.741 94.6133 463.013 77.8125 447.437C65.9721 435.05 60.5315 419.463 60.7226 402.43C63.1194 372.79 81.607 344.565 102 324C102.923 323.064 103.846 322.128 104.797 321.164C121.189 305.361 141.817 293.936 163.625 287.562C164.386 287.34 165.147 287.117 165.931 286.887C184.413 281.924 202.694 281.552 221.715 281.602ZM120.125 352.875C107.97 366.763 93.4502 387.726 94 407C95.6769 416.147 99.4635 422.375 107.051 427.746C114.401 432.474 122.529 432.147 130.967 432.14C132.074 432.143 133.182 432.146 134.323 432.149C138.035 432.158 141.747 432.16 145.459 432.161C148.121 432.166 150.782 432.171 153.443 432.176C160.675 432.19 167.906 432.196 175.138 432.2C179.657 432.203 184.176 432.207 188.695 432.212C201.218 432.224 213.741 432.234 226.264 432.238C227.065 432.238 227.866 432.238 228.691 432.238C229.494 432.238 230.297 432.239 231.124 432.239C232.751 432.239 234.378 432.24 236.004 432.24C236.811 432.24 237.618 432.241 238.45 432.241C251.516 432.245 264.583 432.262 277.65 432.286C291.079 432.309 304.509 432.322 317.938 432.323C325.472 432.324 333.007 432.33 340.541 432.348C346.959 432.363 353.376 432.368 359.793 432.36C363.064 432.356 366.334 432.359 369.604 432.371C373.16 432.384 376.715 432.378 380.271 432.367C381.8 432.38 381.8 432.38 383.36 432.392C393.925 432.32 403.42 430.895 411.156 423.242C415.616 417.819 418.278 411.093 418 404C414.653 378.742 396.447 354.527 377 339C349.344 318.856 319.686 314.501 286.187 314.602C283.757 314.599 281.326 314.597 278.895 314.593C273.836 314.588 268.777 314.595 263.718 314.609C257.294 314.626 250.87 314.616 244.446 314.598C239.437 314.587 234.428 314.591 229.419 314.599C227.053 314.6 224.687 314.598 222.32 314.591C182.771 314.499 148.032 323.145 120.125 352.875Z" fill="#7A8594"/>
<path d="M289 52C289.682 52.2143 290.363 52.4286 291.065 52.6494C305.293 57.232 317.686 64.1871 329 74C329.808 74.6639 330.616 75.3277 331.449 76.0117C351.639 93.1584 364.814 118.76 368 145C368.312 149.858 368.382 154.696 368.375 159.563C368.374 160.222 368.374 160.881 368.373 161.56C368.332 172.541 367.385 182.557 364 193C363.786 193.682 363.571 194.363 363.35 195.065C358.768 209.294 351.813 221.686 342 233C341.336 233.808 340.672 234.616 339.988 235.449C322.839 255.641 297.242 268.809 271 272C236.664 274.214 206.901 266.883 180.548 244.148C160.114 225.996 147.978 201.918 144 175C143.091 158.823 142.967 142.529 148 127C148.321 125.978 148.321 125.978 148.649 124.935C153.232 110.706 160.187 98.3139 170 87C170.664 86.1918 171.328 85.3835 172.012 84.5508C186.169 67.881 205.212 57.123 226 51C227.106 50.6597 228.212 50.3194 229.351 49.9688C248.146 45.215 270.569 46.0262 289 52ZM199.387 103.62C195.856 107.134 192.839 110.917 190 115C189.459 115.777 188.917 116.555 188.359 117.355C177.236 134.574 174.205 156.3 177.617 176.336C180.612 188.767 186.662 201.261 195 211C195.473 211.626 195.946 212.253 196.434 212.898C206.611 225.741 224.127 235.404 240.098 238.562C263.129 241.145 284.474 237.825 303.5 223.938C304.677 222.971 305.844 221.992 307 221C307.638 220.504 308.276 220.007 308.934 219.496C322.781 208.294 332.717 189.665 335 172C336.971 147.63 331.491 125.915 315.684 106.965C300.321 89.9925 279.906 81.3598 257.258 80.0547C235.487 79.5274 214.974 88.8249 199.387 103.62Z" fill="#7A8594"/>
</svg>
