<svg width="800" height="512" viewBox="0 0 800 512" fill="none" xmlns="http://www.w3.org/2000/svg">
<path d="M196.75 83.7617C197.558 83.7519 198.365 83.7421 199.197 83.732C225.246 83.4813 249.121 85.8289 274 94C274.704 94.2291 275.408 94.4583 276.133 94.6943C312.082 106.648 344.603 130.387 368 160C369.189 161.446 369.189 161.446 370.402 162.922C398.618 198.046 412.509 242.963 412.313 287.625C412.31 288.508 412.308 289.391 412.306 290.301C412.147 330.857 400.499 370.626 377 404C376.565 404.623 376.13 405.246 375.682 405.888C342.921 452.348 294.304 480.579 238.822 490.554C232.299 491.584 225.978 492.172 219.383 492.238C218.577 492.248 217.771 492.258 216.94 492.268C177.673 492.648 127.82 487.624 96.8869 460.121C95.021 458.722 95.021 458.722 92.7072 459.504C89.2038 461.44 85.956 463.631 82.6876 465.938C81.2541 466.936 79.8205 467.935 78.3869 468.934C77.2932 469.699 77.2932 469.699 76.1774 470.48C72.7981 472.839 69.3988 475.169 66.0001 477.5C64.6667 478.417 63.3334 479.333 62.0001 480.25C59.3335 482.083 56.6668 483.917 54.0001 485.75C53.0088 486.432 53.0088 486.432 51.9975 487.127C50.6732 488.037 49.3488 488.947 48.0243 489.857C44.5508 492.244 41.0802 494.635 37.6134 497.031C36.5335 497.777 36.5335 497.777 35.4318 498.537C34.0585 499.485 32.6861 500.434 31.3146 501.385C29.5506 502.601 27.7784 503.804 26.0001 505C25.1262 505.588 24.2522 506.176 23.3517 506.781C19.3265 508.867 15.4082 508.775 11.0001 508C7.8813 506.309 5.60997 504.22 4.00016 501C2.9236 492.525 5.46525 485.006 8.05875 477.043C8.48687 475.692 8.91369 474.341 9.33929 472.99C10.4625 469.434 11.6027 465.884 12.7468 462.336C13.8741 458.83 14.9865 455.32 16.0998 451.811C17.857 446.277 19.616 440.744 21.3786 435.212C21.5941 434.536 21.8096 433.859 22.0317 433.161C23.3562 429.006 24.6925 424.855 26.0356 420.706C26.9014 418.023 27.7576 415.337 28.6116 412.65C29.2079 410.785 29.8165 408.924 30.4253 407.062C30.7801 405.941 31.1349 404.82 31.5004 403.665C31.8154 402.688 32.1305 401.71 32.4551 400.703C33.6272 394.89 31.0006 391.058 28.0626 386.25C17.7622 368.567 11.2515 348.945 7.00016 329C6.82372 328.209 6.64728 327.419 6.46549 326.604C-4.10906 277.169 7.36171 221.085 34.3751 178.75C35.879 176.473 37.429 174.231 39.0001 172C39.6527 171.066 39.6527 171.066 40.3185 170.112C72.9051 123.898 121.106 95.9226 176.156 85.4455C183.019 84.3704 189.806 83.8319 196.75 83.7617ZM78.4572 163.526C56.1889 185.923 40.3942 215.356 33.0001 246C32.804 246.781 32.6079 247.562 32.4059 248.367C29.2054 261.622 28.6073 274.743 28.5626 288.312C28.5565 289.105 28.5503 289.898 28.5439 290.715C28.4696 305.558 30.3194 320.024 34.1876 334.375C34.3949 335.147 34.6021 335.919 34.8156 336.714C39.2148 352.396 45.6344 369.656 55.3815 382.873C59.4711 388.541 59.7461 393.13 59.0001 400C57.8286 405.028 56.2291 409.895 54.59 414.785C54.1376 416.177 53.6868 417.569 53.2376 418.961C52.0622 422.593 50.8691 426.219 49.6706 429.843C47.7452 435.673 45.8431 441.511 43.9489 447.351C43.2852 449.387 42.6113 451.418 41.9362 453.45C41.5357 454.676 41.1352 455.902 40.7226 457.164C40.365 458.246 40.0075 459.327 39.6392 460.442C38.7133 462.969 38.7133 462.968 40.0001 465C40.539 464.597 41.0778 464.193 41.633 463.777C54.698 454.132 68.2512 445.148 81.7501 436.125C82.3634 435.715 82.9767 435.304 83.6085 434.881C88.4991 431.627 90.9901 430.428 97.0001 431C101.305 432.751 105.107 435.399 108.949 437.984C148.903 464.652 197.378 473.348 244.332 464.219C291.909 454.323 332.754 425.163 359.367 384.804C372.172 364.873 380.55 343.26 385 320C385.185 319.053 385.371 318.106 385.562 317.13C387.236 307.628 387.399 298.244 387.375 288.625C387.374 287.788 387.374 286.951 387.373 286.089C387.333 272.388 386.391 259.328 383 246C382.791 245.154 382.582 244.308 382.367 243.437C370.346 196.119 338.624 156.62 297.021 131.82C279.189 121.489 260.15 115.048 240 111C238.844 110.765 237.687 110.531 236.496 110.289C177.857 99.9542 119.941 122.489 78.4572 163.526Z" fill="white"/>
<path d="M370.001 14C370.705 14.2291 371.409 14.4583 372.134 14.6944C408.083 26.6484 440.604 50.3874 464 80C465.189 81.4463 465.19 81.4463 466.403 82.9219C494.618 118.046 508.509 162.963 508.313 207.625C508.31 208.508 508.308 209.392 508.306 210.302C508.255 223.406 507.884 236.167 505 249C504.702 250.363 504.702 250.363 504.398 251.754C500.062 271.058 493.584 293.366 481.807 309.65C480.095 312.108 478.941 313.967 479.116 317.029C480.79 324.742 483.15 332.208 485.578 339.711C486.032 341.128 486.486 342.546 486.939 343.964C488.129 347.683 489.325 351.4 490.522 355.116C491.72 358.833 492.913 362.551 494.105 366.27C494.338 366.994 494.57 367.718 494.81 368.465C496.616 374.097 498.414 379.732 500.206 385.369C501.148 388.332 502.095 391.294 503.053 394.252C503.939 396.99 504.808 399.732 505.672 402.477C505.917 403.218 506.162 403.959 506.414 404.722C508.062 410.057 508.781 415.433 508 421C506.31 424.118 504.217 426.391 501 428C493.766 429.246 489.236 427.548 483.34 423.43C482.822 423.052 482.303 422.674 481.769 422.284C479.74 420.811 477.687 419.378 475.629 417.945C472.237 415.583 468.853 413.209 465.473 410.828C459.895 406.912 454.265 403.078 448.626 399.25C445.911 397.399 443.197 395.547 440.483 393.694C438.903 392.616 437.321 391.539 435.737 390.466C433.776 389.134 431.825 387.788 429.876 386.438C428.822 385.714 427.767 384.991 426.681 384.246C422.652 380.869 420.25 377.742 419.501 372.5C420.238 367.341 422.295 364.383 426.314 361.125C429.925 359.613 432.097 359.479 436.001 360C442.888 363.112 449.013 367.676 455.126 372.063C456.835 373.286 458.546 374.506 460.259 375.723C461.374 376.523 461.374 376.523 462.512 377.34C465.592 379.395 468.77 381.19 472 383C471.624 381.853 471.624 381.853 471.241 380.682C468.87 373.436 466.515 366.185 464.178 358.927C462.976 355.198 461.768 351.47 460.546 347.746C459.365 344.146 458.199 340.54 457.045 336.931C456.604 335.562 456.157 334.195 455.705 332.83C449.701 314.68 449.701 314.68 453.019 306.485C454.243 304.14 455.609 301.96 457.063 299.75C458.084 298.089 459.102 296.425 460.114 294.758C460.611 293.949 461.108 293.139 461.62 292.306C472.181 274.664 477.758 254.152 481 234C481.175 232.925 481.35 231.85 481.531 230.742C482.031 226.754 482.196 222.825 482.238 218.813C482.248 218.041 482.258 217.27 482.268 216.475C482.441 199.296 482.263 182.756 478 166C477.791 165.154 477.582 164.308 477.367 163.437C465.445 116.503 434.295 77.4233 393.022 52.8203C375.19 42.4893 356.151 36.0483 336.001 32C334.267 31.6481 334.267 31.6481 332.497 31.2891C289.909 23.783 241.244 33.3691 205.626 58.2969C201.829 60.7602 198.488 61.3458 194.001 61C190.147 59.073 186.909 56.9216 185.001 53C184.284 48.3681 184.373 45.1791 186.606 40.9844C189.279 37.6539 192.084 35.6815 195.751 33.625C196.741 33.0538 196.741 33.0538 197.75 32.471C199.822 31.2905 201.907 30.1395 204.001 29C204.642 28.6515 205.282 28.303 205.942 27.9439C224.054 18.2337 242.933 11.3872 263.001 7.00002C263.799 6.82068 264.597 6.64134 265.419 6.45656C299.506 -0.828258 337.221 3.23391 370.001 14Z" fill="white"/>
<path d="M251.312 185.813C265.718 198.116 275.305 213.816 277.813 232.75C277.901 234.165 277.962 235.582 278 237C278.05 237.873 278.101 238.745 278.153 239.645C278.74 257.178 273.8 273.172 263 287C262.234 288.031 262.234 288.031 261.453 289.082C255.279 296.83 246.67 301.834 238.262 306.84C237.048 307.565 237.048 307.565 235.81 308.305C234.215 309.251 232.614 310.186 231.005 311.107C226.853 313.554 223.929 315.388 222 320C221.143 323.56 220.878 326.871 220.859 330.527C220.84 331.567 220.821 332.607 220.801 333.678C220.767 335.847 220.749 338.016 220.746 340.186C220.537 349.051 220.537 349.051 217.578 352.691C213.553 356.296 210.82 356.39 205.551 356.359C201.441 355.78 199.786 354.001 197 351C194.748 346.497 195.731 340.362 195.705 335.354C195.693 333.842 195.673 332.331 195.643 330.819C195.39 317.963 196.871 307.501 205.48 297.406C210.386 292.721 216.18 289.412 222 286C236.166 277.582 246.586 270.483 251 254C253.912 241.294 251.404 227.574 244.707 216.461C238.197 207.076 228.313 200.379 217 198C202.475 197.122 190.634 198.436 179 208C169.326 216.957 165.632 226.782 164.251 239.631C163.543 245.23 162.118 248.074 158 252C154.501 253.787 150.838 254.378 146.969 253.582C143.203 252.138 141.106 250.356 139 247C135.426 233.975 140.523 218.508 146.566 207.023C156.416 190.798 171.056 178.852 189.25 173.125C210.983 168.295 233.611 172.255 251.312 185.813Z" fill="white"/>
<path d="M213 380C216.126 381.672 218.393 383.786 220 387C220.515 391.092 220.944 395.236 218.953 398.957C216.555 401.856 214.603 403.798 210.828 404.273C203.011 404.581 203.011 404.581 199.437 401.625C195.694 397.594 195.61 394.905 195.641 389.551C196.22 385.441 197.999 383.787 201 381C204.725 379.138 208.945 379.429 213 380Z" fill="white"/>
</svg>
