<svg width="800" height="512" viewBox="0 0 800 512" fill="none" xmlns="http://www.w3.org/2000/svg">
<g clip-path="url(#clip0_112_2)">
<path d="M493 79.9999C494.031 80.7424 495.062 81.4849 496.125 82.2499C504.876 90.6203 511.901 103.011 512.238 115.344C512.451 125.208 512.364 133.928 508 143C507.416 144.232 507.416 144.232 506.82 145.488C504.05 150.626 500.462 154.856 496.49 159.098C495.697 159.951 495.697 159.951 494.888 160.821C489.59 166.487 484.145 172.003 478.66 177.487C477.574 178.577 476.488 179.666 475.402 180.756C472.458 183.71 469.511 186.661 466.563 189.612C463.369 192.81 460.177 196.01 456.986 199.211C449.304 206.912 441.618 214.609 433.93 222.305C431.03 225.209 428.13 228.113 425.23 231.017C412.427 243.839 399.623 256.658 386.815 269.474C383.691 272.6 380.567 275.726 377.443 278.852C376.667 279.629 375.89 280.406 375.09 281.206C362.499 293.805 349.917 306.413 337.338 319.024C324.397 331.999 311.447 344.966 298.491 357.926C291.227 365.192 283.966 372.461 276.714 379.739C270.543 385.932 264.365 392.118 258.178 398.295C255.026 401.442 251.878 404.593 248.738 407.752C245.856 410.651 242.966 413.541 240.068 416.423C239.028 417.461 237.992 418.501 236.959 419.546C223.82 432.828 210.671 442.186 191.445 443.031C169.002 442.828 155.686 429.987 140.779 415.085C139.36 413.675 137.942 412.265 136.523 410.855C132.69 407.043 128.863 403.225 125.038 399.406C122.644 397.015 120.248 394.626 117.852 392.237C109.481 383.89 101.115 375.538 92.7546 367.18C84.9803 359.41 77.193 351.652 69.3996 343.901C62.6915 337.227 55.9932 330.544 49.3021 323.854C45.3134 319.866 41.3208 315.882 37.3182 311.908C33.5527 308.169 29.7995 304.418 26.0551 300.657C24.6853 299.286 23.3112 297.918 21.9325 296.556C9.74303 284.499 -0.226303 272.238 -0.46875 254.263C-0.458518 253.393 -0.448286 252.522 -0.437744 251.625C-0.429446 250.707 -0.421147 249.788 -0.412598 248.842C-0.0769701 235.319 5.08693 224.109 14.3123 214.187C25.3963 203.869 39.4528 199.645 54.3005 199.785C80.2133 201.29 96.8593 222.562 113.905 239.702C116.585 242.395 119.271 245.082 121.957 247.77C127.021 252.841 132.081 257.917 137.138 262.994C142.905 268.783 148.677 274.566 154.449 280.349C166.306 292.226 178.155 304.111 190 316C193.354 314.542 195.545 312.7 198.118 310.116C198.935 309.301 199.752 308.485 200.594 307.645C201.932 306.294 201.932 306.294 203.297 304.916C204.258 303.953 205.22 302.991 206.182 302.028C208.826 299.381 211.464 296.727 214.1 294.073C216.945 291.211 219.795 288.356 222.645 285.5C227.584 280.548 232.519 275.593 237.453 270.636C244.595 263.46 251.744 256.292 258.895 249.126C270.509 237.488 282.12 225.847 293.728 214.203C294.423 213.506 295.118 212.809 295.834 212.091C305.688 202.205 315.539 192.317 325.389 182.427C326.429 181.383 326.429 181.383 327.49 180.318C328.182 179.623 328.874 178.928 329.587 178.212C341.14 166.613 352.701 155.022 364.268 143.437C371.4 136.293 378.525 129.143 385.642 121.984C390.524 117.076 395.412 112.174 400.307 107.278C403.128 104.455 405.946 101.629 408.756 98.7941C411.332 96.1946 413.917 93.6046 416.51 91.0216C417.881 89.651 419.242 88.2705 420.603 86.8896C440.525 67.1287 469.83 62.3446 493 79.9999Z" fill="#7A8594"/>
</g>
<defs>
<clipPath id="clip0_112_2">
<rect width="512" height="512" fill="white"/>
</clipPath>
</defs>
</svg>
