<svg width="512" height="512" viewBox="0 0 512 512" fill="none" xmlns="http://www.w3.org/2000/svg">
<g clip-path="url(#clip0_106_189)">
<path d="M314 24C314.606 24.3223 315.212 24.6446 315.836 24.9766C364.794 51.2727 399.606 97.3017 415.566 150.047C418.756 161.191 420.593 172.508 422 184C422.133 185.052 422.266 186.104 422.402 187.188C428.109 242.22 409.334 295.756 376 339C378.649 343.2 381.391 346.621 384.957 350.117C385.423 350.578 385.889 351.039 386.369 351.514C387.846 352.972 389.329 354.424 390.813 355.875C396.489 361.443 402.104 366.997 407.272 373.047C410.661 376.878 414.355 380.416 418 384C422.929 388.846 427.69 393.73 432.195 398.973C435.62 402.82 439.329 406.39 443 410C447.929 414.846 452.69 419.73 457.195 424.973C460.62 428.82 464.329 432.39 468 436C472.972 440.888 477.77 445.816 482.312 451.107C484.533 453.598 486.921 455.876 489.341 458.173C497.708 466.157 503.569 473.248 504.129 485.27C503.746 493.38 500.73 500.244 495 506C489.103 510.49 484.337 512.169 476.875 512.313C475.614 512.35 474.354 512.387 473.055 512.426C461.373 511.672 454.509 503.138 446.875 495.25C445.724 494.082 444.571 492.916 443.418 491.75C438.336 486.593 433.379 481.38 428.669 475.878C425.293 472.079 421.622 468.562 418 465C413.071 460.154 408.31 455.27 403.805 450.027C400.38 446.18 396.672 442.61 393 439C388.071 434.154 383.31 429.27 378.805 424.027C375.38 420.18 371.672 416.61 368 413C359.435 404.579 359.435 404.579 355.527 400.031C351.445 395.281 347.013 390.904 342.563 386.5C341.736 385.678 340.909 384.855 340.057 384.008C338.04 382.003 336.021 380 334 378C329.422 380.518 324.863 383.033 320.438 385.813C272.852 414.349 216.454 420.483 162.934 407.737C120.478 397.069 81.116 371.311 54.0001 337C53.5896 336.488 53.1792 335.976 52.7564 335.448C46.5271 327.664 40.9262 319.689 36.0001 311C35.4122 309.968 35.4122 309.968 34.8126 308.915C18.2241 279.458 9.15124 246.78 8.00005 213C7.9588 211.986 7.91755 210.971 7.87505 209.926C6.89168 162.908 22.5118 115.646 52.0001 79C53.2085 77.486 53.2085 77.486 54.4415 75.9415C69.7368 57.1448 87.5111 41.8321 108 29C108.899 28.4321 108.899 28.4321 109.816 27.8526C128.096 16.4723 149.081 8.85 170 4.00005C170.884 3.79122 171.767 3.58239 172.678 3.36723C220.108 -7.30025 271.446 1.24648 314 24ZM109.385 97.6617C108.191 98.8158 106.978 99.9508 105.762 101.082C79.8104 125.785 64.6171 163.573 63.0001 199C62.9472 200.128 62.8944 201.256 62.8399 202.418C61.9525 240.267 74.8883 277.576 100 306C100.424 306.49 100.848 306.979 101.285 307.483C107.623 314.788 114.28 321.124 122 327C123.274 327.998 123.274 327.998 124.574 329.016C155.975 352.859 196.099 362.808 235.094 358.231C264.23 354.237 291.663 342.082 314 323C314.521 322.559 315.041 322.119 315.577 321.665C344.424 296.998 361.347 263.253 367 226C367.197 224.741 367.197 224.741 367.398 223.457C372.42 184.035 359.823 144.048 335.813 112.875C311.488 82.4381 275.549 60.1936 236.469 55.3086C188.719 51.0606 144.166 63.961 109.385 97.6617Z" fill="white"/>
</g>
<defs>
<clipPath id="clip0_106_189">
<rect width="512" height="512" fill="white"/>
</clipPath>
</defs>
</svg>
